<?xml version="1.0" encoding="utf-8"?>
<!-- Generator: Adobe Illustrator 27.0.0, SVG Export Plug-In . SVG Version: 6.00 Build 0)  -->
<svg version="1.1" id="Capa_2_00000154384218536360121960000000113196053087776926_"
	 xmlns="http://www.w3.org/2000/svg" xmlns:xlink="http://www.w3.org/1999/xlink" x="0px" y="0px" viewBox="0 0 461.1 405.3"
	 style="enable-background:new 0 0 461.1 405.3;" xml:space="preserve">
<style type="text/css">
	.st0{clip-path:url(#SVGID_00000070820430591468646310000001172211917488880530_);}
	.st1{fill:url(#SVGID_00000106835226655836049620000005316215176000663953_);}
	.st2{fill:none;}
	.st3{fill:#B4B400;}
	.st4{fill:#FFFFFF;}
</style>
<g id="Capa_1-2_00000149362246565619081810000001677091798423972226_">
	<g id="Capa_2-2">
		<g id="Logotipo_Madera">
			<g>
				<defs>
					<path id="SVGID_1_" d="M6.8,284.1c9.2,25.2,28.1,45,53.6,59l7.9,21.6c4.2,11.6,13.2,19,20,16.5l32.8-12
						c51.1,35.8,117.1,47.1,178.9,24.6s105.1-73.6,121.2-133.8l32.9-12c6.8-2.5,9-13.9,4.7-25.5l-7.9-21.6
						c10.6-27.1,12.4-54.5,3.2-79.6s-28.1-45-53.6-59l-7.8-21.5c-4.2-11.6-13.2-19-20-16.5l-32.9,12C288.8,0.4,222.8-10.9,161,11.6
						S55.9,85.2,39.8,145.4l-32.8,12c-6.8,2.5-9,13.9-4.8,25.5l7.9,21.6C-0.6,231.5-2.3,258.9,6.8,284.1z"/>
				</defs>
				<clipPath id="SVGID_00000106859852797068669080000007584218303508867749_">
					<use xlink:href="#SVGID_1_"  style="overflow:visible;"/>
				</clipPath>
				<g style="clip-path:url(#SVGID_00000106859852797068669080000007584218303508867749_);">
					<g id="Prtl4D.tif">
						
							<image style="overflow:visible;enable-background:new    ;" width="756" height="500" id="Capa_1-2" xlink:href="FB63FC5FB1486E34.png"  transform="matrix(0.7893 -0.2873 0.2873 0.7893 -143.56 114.05)">
						</image>
						
							<radialGradient id="SVGID_00000092425908721997120000000002923855536224007087_" cx="163.737" cy="113.1976" r="224.5581" gradientTransform="matrix(0.9397 -0.342 0.342 0.9397 37.624 151.3175)" gradientUnits="userSpaceOnUse">
							<stop  offset="0" style="stop-color:#000000;stop-opacity:0"/>
							<stop  offset="1" style="stop-color:#000000;stop-opacity:0.85"/>
						</radialGradient>
						<polygon style="fill:url(#SVGID_00000092425908721997120000000002923855536224007087_);" points="-65.4,85.6 382,-77.2 
							525.8,317.8 78.4,480.6 						"/>
					</g>
				</g>
			</g>
			<g>
				<path class="st2" d="M378.6,146.2c0.5,1.4,0.5,3,0,4.4c-0.5,1.4-1.6,2.5-3,3c-0.9,0.3-1.6,0.4-2.2,0.3c-0.1,0.5-0.3,0.9-0.4,1.4
					c0.8,1.6,1.8,2.7,2.9,3.3c1.6,0.9,3.6,0.9,6,0c2.6-0.8,4.8-2.6,6.2-5l0,0h0c1.3-2.4,1.2-5.4-0.1-9.1c-1.2-3.2-2.6-6.3-4.2-9.3
					c-3.9-8.4-6.5-14-7.8-16.9c0.3,8.3-0.2,16.6-1.4,24.9C376.4,143.3,378,144.5,378.6,146.2z"/>
				<polygon class="st2" points="186.7,310.3 179.7,317.1 186.6,320 				"/>
				<path class="st2" d="M241.1,88.3c0.1-0.3,0.2-0.6,0.2-1c0-0.4,0-0.7-0.1-1c-0.1-0.3-0.3-0.6-0.5-0.9c-0.2-0.2-0.5-0.4-0.8-0.6
					c-0.3-0.2-0.6-0.2-1-0.3c-0.4,0-0.7,0-1,0.1c-0.3,0.1-0.6,0.3-0.8,0.5s-0.4,0.5-0.6,0.8c-0.1,0.3-0.2,0.6-0.3,1
					c0,0.4,0,0.7,0.1,1c0.1,0.3,0.2,0.6,0.4,0.9c0.2,0.2,0.5,0.4,0.8,0.6c0.3,0.2,0.7,0.2,1,0.3c0.4,0,0.7,0,1.1-0.1
					c0.3-0.1,0.6-0.3,0.8-0.5C240.8,88.9,241,88.6,241.1,88.3z"/>
				<path class="st2" d="M204.1,248.3c-0.9,0.4-1.5,1.2-1.6,2.2c-0.3,1.3-0.4,2.6-0.3,3.9c0.1,1.2,0.3,2.5,0.7,3.6
					c0.2,0.7,0.6,1.3,1.1,1.8c0.4,0.2,0.8,0.2,1.2,0c0.5-0.2,0.9-0.6,1.2-1.2c0.3-0.7,0.5-1.4,0.3-2.2l-0.1-0.1l-1-7.4
					C205.4,248.4,204.7,248.1,204.1,248.3z"/>
				<path class="st2" d="M275.3,257c0.8,2.2,1.6,3.5,2.5,3.9c0.8,0.4,1.8,0.4,2.7,0.1c1.2-0.5,2.2-1.5,2.7-2.8l0,0
					c0.7-1.6,1-3.3,0.7-5l-2.3-16.1c-0.2-0.6-0.7-1.1-1.3-1.4c-0.7-0.4-1.6-0.4-2.3-0.1c-1.8,0.7-3,2.3-3.6,4.8
					c-0.7,2.8-0.9,5.7-0.6,8.6C273.9,251.7,274.5,254.4,275.3,257z"/>
				<path class="st2" d="M219.1,248.5L219.1,248.5L219.1,248.5c0.5-0.7,0.9-1.5,1-2.4c0.1-0.9,0.1-1.8-0.2-2.6s-0.7-1.1-1.2-0.9
					c-0.7,0.2-1.1,1.1-1.4,2.6c-0.2,1.6-0.2,3.2,0,4.8C218,249.8,218.6,249.2,219.1,248.5z"/>
				<path class="st2" d="M218.6,88.7c-0.4,0-0.7,0.1-1,0.3c-0.3,0.2-0.5,0.4-0.8,0.6c-0.2,0.3-0.4,0.5-0.5,0.8s-0.2,0.6-0.1,0.9
					l5.1-0.5c-0.1-0.7-0.4-1.3-0.8-1.7S219.4,88.6,218.6,88.7z"/>
				<path class="st2" d="M220.5,321.2c0.1-0.6,0-1-0.1-1.4c-0.2-0.4-0.4-0.7-0.7-1c-0.3-0.3-0.8-0.5-1.3-0.7
					c-0.5-0.2-1.1-0.3-1.7-0.4l-3-0.4l-0.7,6l3,0.4c1.4,0.2,2.5,0,3.3-0.4C219.9,322.9,220.4,322.2,220.5,321.2z"/>
				<path class="st2" d="M118.8,242.1c1.4,3.8,2.8,6,4.3,6.7c1.5,0.7,3.1,0.7,4.6,0.1c1.9-0.7,3.4-2.2,4.7-4.7h0
					c1.2-2.7,1.6-5.8,1.1-8.7l-3.9-27.7c-0.4-1.1-1.2-1.9-2.2-2.5c-1.2-0.7-2.8-0.7-4-0.1c-3,1.1-5.1,3.9-6.3,8.2
					c-1.2,4.9-1.5,9.9-1,14.8C116.3,232.9,117.2,237.6,118.8,242.1z"/>
				<polygon class="st2" points="291.7,311.1 298,307 290,301.4 				"/>
				<path class="st2" d="M347.9,145L347.9,145L347.9,145c1.8-2.8,3.1-5.9,3.6-9.2c0.5-3.3,0.2-6.6-0.9-9.7s-2.6-4.3-4.5-3.6
					c-2.7,1-4.5,4.4-5.4,10.1c-0.9,6.1-0.8,12.3,0.3,18.3C343.8,149.6,346.2,147.6,347.9,145z"/>
				<path class="st2" d="M258.6,191.2c1.4,3.8,2.8,6,4.3,6.7c1.5,0.7,3.1,0.7,4.6,0.1c2.1-0.9,3.7-2.6,4.6-4.7v0
					c1.2-2.7,1.6-5.8,1.1-8.7l-3.9-27.7c-0.4-1.1-1.2-1.9-2.2-2.5c-1.2-0.7-2.7-0.7-4-0.1c-3,1.1-5.1,3.9-6.3,8.2
					c-1.2,4.9-1.5,9.9-1,14.8C256.2,182.1,257.1,186.7,258.6,191.2z"/>
				<path class="st2" d="M205.7,318.2c-0.4-0.8-1.1-1.5-1.9-2.1s-1.8-1.1-3.1-1.4l-3.3-0.9l-3.6,13.5l3.3,0.9
					c1.2,0.3,2.4,0.4,3.4,0.3c1-0.1,1.9-0.4,2.7-0.9c0.8-0.5,1.4-1.1,1.9-1.8c0.5-0.7,0.9-1.5,1.1-2.4s0.3-1.7,0.2-2.6
					C206.3,319.8,206.1,319,205.7,318.2z"/>
				<path class="st2" d="M435.6,206.5c-2.2-5.5-2.2-11.7-0.2-17.3c6.2-15.7,11.8-39.3,3.4-62.3s-27.9-37.5-42.7-45.6
					c-5.1-3-9-7.8-10.9-13.4l-7.8-21.6c-0.1-0.3-0.2-0.4-0.4-0.6l-29.7,10.8c-4.3,1.6-9.4,0.7-13.8-2.4
					C285,20.2,223.3,11.9,168.4,31.9S71.5,97.9,56.1,155c-1.4,5.2-4.7,9.1-9,10.7l-29.6,10.8c0,0.2,0.1,0.5,0.2,0.7l7.8,21.6
					c2.2,5.5,2.2,11.7,0.2,17.3c-6.2,15.8-11.8,39.4-3.4,62.4S50.2,315.9,65,324c5.1,3,9,7.8,10.9,13.4l7.9,21.6
					c0.1,0.2,0.2,0.5,0.3,0.7l29.6-10.8c4.3-1.6,9.3-0.7,13.8,2.4c48.4,33.9,110.2,42.2,165.1,22.2v0c54.9-20,96.9-66,112.2-123.1
					c1.4-5.2,4.7-9.2,9-10.7l29.7-10.8c0-0.2-0.1-0.5-0.2-0.7L435.6,206.5z M86.5,169C107.6,89.9,189.1,42.6,268.2,63.7
					c28.2,7.5,53.3,23,72.7,44.7c0.9,1,0.8,2.6-0.2,3.5c-1,0.9-2.6,0.8-3.5-0.2c-18.7-21-43-36-70.3-43.2
					C190.5,48.2,111.7,93.8,91.4,170.3c-0.3,1.1-1.3,1.9-2.4,1.9c-0.2,0-0.4,0-0.6-0.1C87,171.7,86.2,170.4,86.5,169z M236.6,137.8
					l-2-0.3l-1.4,1.5l-0.4-2l-1.9-0.8l1.8-1l0.2-2.1l1.5,1.4l2-0.4l-0.9,1.9L236.6,137.8z M186.7,129c-20.9,11.6-36,30.6-42.5,53.5
					c-0.3,1.1-1.3,1.8-2.4,1.8c-0.2,0-0.5,0-0.7-0.1c-1.3-0.4-2.1-1.8-1.7-3.1c6.9-24.2,22.9-44.3,44.9-56.5
					c22-12.2,47.5-15.1,71.7-8.2c9.3,2.6,18,6.7,26,12c1.2,0.8,1.5,2.3,0.7,3.5c-0.8,1.2-2.3,1.5-3.5,0.7c-7.6-5-15.9-8.8-24.6-11.3
					C231.6,114.7,207.5,117.5,186.7,129z M226.1,141.7l-3.4-0.5l-2.3,2.5l-0.6-3.4l-3.1-1.4l3-1.6l0.4-3.4l2.5,2.4l3.4-0.7l-1.5,3.1
					L226.1,141.7z M212.3,146.7l-4.5-0.6l-3.1,3.4l-0.8-4.5l-4.2-1.9l4-2.2l0.5-4.5l3.3,3.2l4.5-0.9l-2,4.1L212.3,146.7z
					 M196.7,152.3l-3.4-0.5l-2.3,2.5l-0.6-3.4l-3.1-1.4l3-1.6l0.4-3.4l2.5,2.4l3.4-0.7l-1.5,3.1L196.7,152.3z M183.9,157l-2-0.3
					l-1.4,1.5l-0.4-2l-1.9-0.8l1.8-1l0.2-2l1.5,1.4l2-0.4l-0.9,1.8L183.9,157z M141.5,138.3l-0.7,0.9l-8.2-6.2l-2.3,3l-0.8-0.6
					l5.3-6.9l0.8,0.6l-2.3,3L141.5,138.3z M139,129.7c0.1-0.5,0.3-1,0.6-1.4c0.1-0.1,0.2-0.2,0.3-0.3s0.2-0.2,0.3-0.2l0.7,0.8
					c-0.1,0-0.1,0.1-0.3,0.2c-0.1,0.1-0.2,0.2-0.3,0.3c-0.2,0.2-0.3,0.5-0.4,0.7c-0.1,0.3-0.1,0.6-0.1,0.9c0,0.3,0.2,0.6,0.4,0.9
					c0.2,0.3,0.5,0.6,0.9,1l2.9,2.5l-0.7,0.8l-4.5-3.8c-0.2-0.1-0.4-0.3-0.6-0.5c-0.3-0.2-0.5-0.4-0.7-0.5l0.7-0.8
					c0.2,0.1,0.3,0.2,0.5,0.4s0.4,0.3,0.5,0.4l0,0C139,130.7,139,130.2,139,129.7z M147.5,114.1l0.8-0.7l8.2,8.9l-0.8,0.7l-0.9-0.9
					l0,0c0.1,0.6,0,1.1-0.2,1.6c-0.2,0.5-0.5,1-0.9,1.3c-0.4,0.4-0.9,0.7-1.4,0.9c-0.5,0.2-1,0.2-1.5,0.2c-0.5,0-1-0.2-1.4-0.4
					c-0.5-0.2-0.9-0.5-1.3-0.9c-0.4-0.4-0.7-0.8-0.8-1.3c-0.2-0.5-0.3-1-0.3-1.4s0.1-1,0.3-1.4c0.2-0.5,0.5-0.9,1-1.3
					c0.4-0.4,0.9-0.6,1.4-0.8c0.5-0.2,1.1-0.2,1.7,0l0,0L147.5,114.1z M151,112.7c0-0.2,0.1-0.4,0.3-0.5c0.1-0.1,0.3-0.2,0.5-0.2
					c0.2,0,0.4,0.1,0.5,0.3c0.1,0.2,0.2,0.4,0.2,0.6c0,0.2-0.1,0.4-0.3,0.5c-0.1,0.1-0.3,0.2-0.5,0.2c-0.2,0-0.4-0.1-0.5-0.3
					C151,113.1,151,112.9,151,112.7z M159.7,110.4c0.5-0.1,1.1-0.1,1.6,0l-0.3,1c-0.3-0.1-0.7-0.2-1.1-0.1c-0.4,0.1-0.7,0.2-1.1,0.5
					c-0.4,0.3-0.6,0.6-0.8,0.9c-0.2,0.3-0.3,0.7-0.3,1.1c0,0.4,0,0.7,0.1,1.1c0.1,0.4,0.3,0.7,0.6,1.1s0.5,0.6,0.9,0.8
					c0.3,0.2,0.7,0.4,1,0.4c0.4,0.1,0.7,0.1,1.1,0c0.4-0.1,0.7-0.3,1.1-0.5c0.4-0.3,0.7-0.6,0.8-0.9c0.2-0.3,0.2-0.7,0.2-1.1l1,0
					c0,0.5-0.1,1-0.4,1.5c-0.2,0.5-0.6,0.9-1.1,1.3c-0.5,0.4-1,0.6-1.5,0.8c-0.5,0.1-1,0.2-1.5,0.1c-0.5-0.1-1-0.2-1.4-0.5
					c-0.4-0.3-0.8-0.6-1.2-1.1c-0.3-0.5-0.6-0.9-0.7-1.4s-0.2-1-0.1-1.5c0.1-0.5,0.2-1,0.5-1.4c0.3-0.5,0.7-0.9,1.1-1.2
					C158.7,110.7,159.2,110.5,159.7,110.4z M159.7,106.1c0.1-0.2,0.2-0.4,0.3-0.5s0.3-0.1,0.6-0.1c0.2,0,0.4,0.1,0.5,0.3
					c0.1,0.2,0.2,0.4,0.1,0.6s-0.2,0.4-0.3,0.5c-0.2,0.1-0.3,0.1-0.6,0.1c-0.2,0-0.4-0.1-0.5-0.3S159.6,106.3,159.7,106.1z
					 M166,106.2c0.3-0.4,0.7-0.8,1.2-1.1c0.5-0.3,1-0.5,1.5-0.6c0.5-0.1,1-0.1,1.5,0c0.5,0.1,0.9,0.3,1.3,0.6
					c0.4,0.3,0.8,0.7,1.1,1.2c0.3,0.5,0.5,1,0.6,1.5c0.1,0.5,0.1,1-0.1,1.5s-0.3,0.9-0.6,1.4s-0.7,0.8-1.2,1.1
					c-0.5,0.3-1,0.5-1.5,0.6c-0.5,0.1-1,0.1-1.5,0c-0.5-0.1-0.9-0.3-1.3-0.6c-0.4-0.3-0.8-0.7-1.1-1.2c-0.3-0.5-0.5-1-0.6-1.5
					c-0.1-0.5-0.1-1,0.1-1.5C165.5,107,165.7,106.6,166,106.2z M165.9,104.3l0.2-2.8l1.2-0.8l-0.6,3.1L165.9,104.3z M174.3,103.9
					c0.1,0.4,0.2,0.8,0.4,1.2l1.8,3.4l-1,0.5l-2.7-5.2c-0.1-0.2-0.2-0.4-0.4-0.7c-0.2-0.3-0.3-0.5-0.4-0.7l0.9-0.5
					c0.1,0.2,0.2,0.4,0.4,0.6c0.1,0.2,0.2,0.4,0.3,0.5l0,0c0-0.5,0.1-1,0.4-1.4c0.3-0.5,0.7-0.8,1.2-1.1c0.8-0.4,1.6-0.5,2.3-0.2
					c0.7,0.3,1.2,0.8,1.7,1.7l2.1,4.1l-1,0.5l-1.9-3.7c-0.2-0.4-0.4-0.7-0.6-0.9c-0.2-0.3-0.4-0.4-0.7-0.6c-0.2-0.1-0.5-0.2-0.8-0.2
					c-0.3,0-0.6,0.1-1,0.3c-0.3,0.1-0.5,0.3-0.7,0.5c-0.2,0.2-0.3,0.5-0.4,0.8C174.3,103.1,174.2,103.5,174.3,103.9z M166.7,114.5
					l-0.9,0.6l-4.2-6.2l0.9-0.6L166.7,114.5z M158.8,120.4l-0.8,0.7l-4.8-5.8l0.8-0.7L158.8,120.4z M148.8,127.3
					c0.2,0.2,0.4,0.4,0.7,0.6c0.2,0.2,0.5,0.3,0.6,0.5l-0.7,0.7c-0.2-0.1-0.3-0.2-0.5-0.3c-0.2-0.1-0.3-0.3-0.5-0.4l0,0
					c0.1,0.6,0.1,1.1,0,1.6c-0.1,0.5-0.4,0.9-0.8,1.4c-0.2,0.2-0.4,0.4-0.7,0.6c-0.3,0.2-0.5,0.3-0.9,0.3c-0.3,0.1-0.6,0.1-0.9,0
					c-0.3-0.1-0.6-0.3-0.9-0.5c-0.4-0.4-0.7-0.8-0.7-1.3c0-0.4,0-0.9,0.2-1.4c0.2-0.5,0.5-1,0.9-1.5c0.4-0.5,0.8-1,1.3-1.5l-0.2-0.2
					c-0.5-0.4-0.9-0.6-1.4-0.6c-0.5,0-0.9,0.3-1.4,0.8c-0.3,0.3-0.5,0.7-0.7,1.1c-0.1,0.4-0.2,0.8-0.2,1.1l-0.9,0
					c0-0.4,0.1-0.9,0.3-1.4c0.2-0.5,0.5-1,0.9-1.5c0.3-0.3,0.6-0.5,0.9-0.7c0.3-0.2,0.7-0.3,1-0.3c0.3,0,0.7,0,1,0.1
					c0.3,0.1,0.7,0.3,1,0.7L148.8,127.3z M186.7,90.5l1-0.4l4.5,11.2l-1,0.4l-0.5-1.2l0,0c-0.1,0.6-0.4,1.1-0.8,1.5
					c-0.4,0.4-0.8,0.7-1.3,0.9c-0.5,0.2-1.1,0.3-1.6,0.3c-0.5,0-1-0.1-1.4-0.3c-0.4-0.2-0.8-0.5-1.2-0.9c-0.4-0.4-0.6-0.8-0.8-1.3
					c-0.2-0.5-0.3-1-0.3-1.5c0-0.5,0.1-1,0.3-1.5c0.2-0.5,0.5-0.9,0.8-1.2c0.4-0.4,0.8-0.7,1.4-0.9c0.5-0.2,1-0.3,1.6-0.2
					c0.6,0,1.1,0.2,1.6,0.6l0,0L186.7,90.5z M193.9,98.4c0.2,0.3,0.5,0.5,0.8,0.7c0.3,0.2,0.6,0.3,1,0.3c0.4,0,0.7,0,1.1-0.1
					c0.5-0.2,1-0.4,1.3-0.8c0.3-0.4,0.5-0.8,0.6-1.1l1,0.4c-0.3,0.7-0.6,1.2-1.1,1.6c-0.4,0.4-1,0.7-1.5,0.9c-0.5,0.2-1,0.2-1.6,0.2
					s-1-0.2-1.4-0.4c-0.4-0.2-0.8-0.6-1.1-1c-0.3-0.4-0.6-0.9-0.7-1.4c-0.2-0.5-0.2-1.1-0.2-1.6s0.2-1,0.4-1.4
					c0.2-0.4,0.5-0.8,0.9-1.1c0.4-0.3,0.8-0.6,1.3-0.7c0.6-0.2,1.1-0.2,1.6-0.2s0.9,0.2,1.3,0.4s0.7,0.5,1,0.9
					c0.3,0.4,0.5,0.8,0.6,1.3c0,0.1,0,0.1,0.1,0.2c0,0.1,0,0.2,0.1,0.3l-5.9,1.8C193.5,97.8,193.7,98.1,193.9,98.4z M200.8,93
					c0.1,0.3,0.3,0.6,0.6,0.7c0.3,0.1,0.8,0.2,1.4,0.1c0.9,0,1.6,0.1,2.1,0.3c0.5,0.2,0.8,0.6,0.9,1.2c0.1,0.4,0.1,0.8,0,1.1
					c-0.1,0.3-0.2,0.6-0.5,0.9c-0.2,0.2-0.5,0.4-0.8,0.6c-0.3,0.2-0.6,0.3-1,0.4c-0.5,0.1-1.1,0.2-1.7,0.1c-0.6-0.1-1.1-0.3-1.5-0.8
					l0.7-0.8c0.3,0.3,0.6,0.5,1,0.6c0.4,0.1,0.8,0.1,1.3,0c0.2-0.1,0.4-0.1,0.6-0.2c0.2-0.1,0.4-0.2,0.5-0.4s0.2-0.3,0.3-0.5
					c0.1-0.2,0.1-0.4,0-0.6c-0.1-0.4-0.3-0.6-0.8-0.7c-0.4-0.1-1-0.1-1.7-0.1c-0.2,0-0.5,0-0.7,0c-0.3,0-0.5-0.1-0.8-0.2
					c-0.2-0.1-0.5-0.2-0.7-0.4c-0.2-0.2-0.3-0.5-0.4-0.8c-0.1-0.4-0.1-0.7,0-1c0.1-0.3,0.2-0.6,0.4-0.8c0.2-0.2,0.4-0.4,0.7-0.6
					c0.3-0.2,0.6-0.3,0.9-0.4c0.5-0.1,1-0.1,1.6,0c0.5,0.1,1,0.3,1.3,0.7l-0.7,0.8c-0.2-0.3-0.5-0.4-0.9-0.6s-0.7-0.1-1.1,0
					c-0.2,0-0.4,0.1-0.5,0.2c-0.2,0.1-0.3,0.2-0.4,0.3c-0.1,0.1-0.2,0.3-0.3,0.4C200.7,92.6,200.7,92.8,200.8,93z M211.4,84.2
					l1.1-0.2l2,11.9l-1.1,0.2l-0.2-1.2l0,0c-0.2,0.5-0.6,1-1,1.3c-0.5,0.3-1,0.5-1.5,0.6c-0.6,0.1-1.1,0.1-1.6,0
					c-0.5-0.1-0.9-0.3-1.3-0.6c-0.4-0.3-0.7-0.7-1-1.1c-0.3-0.4-0.4-0.9-0.5-1.5c-0.1-0.5-0.1-1.1,0-1.6s0.3-1,0.6-1.4
					c0.3-0.4,0.6-0.7,1.1-1c0.4-0.3,0.9-0.5,1.5-0.6c0.5-0.1,1.1-0.1,1.6,0.1c0.5,0.2,1,0.5,1.4,0.9l0,0L211.4,84.2z M216.6,93.3
					c0.2,0.3,0.4,0.6,0.7,0.8c0.3,0.2,0.6,0.4,0.9,0.5c0.3,0.1,0.7,0.1,1.1,0.1c0.6-0.1,1-0.2,1.4-0.5c0.4-0.3,0.7-0.6,0.8-1
					l0.9,0.6c-0.4,0.6-0.8,1.1-1.4,1.4c-0.5,0.3-1.1,0.5-1.7,0.5c-0.6,0.1-1.1,0-1.6-0.1s-0.9-0.4-1.3-0.7c-0.4-0.3-0.7-0.7-0.9-1.2
					c-0.2-0.5-0.4-1-0.4-1.5c-0.1-0.6,0-1.1,0.1-1.6c0.1-0.5,0.4-0.9,0.7-1.3c0.3-0.4,0.7-0.7,1.1-0.9c0.4-0.2,0.9-0.4,1.5-0.4
					c0.6-0.1,1.1,0,1.6,0.1c0.5,0.2,0.9,0.4,1.2,0.7c0.3,0.3,0.6,0.7,0.8,1.1c0.2,0.4,0.3,0.9,0.4,1.4c0,0.1,0,0.2,0,0.2
					c0,0.1,0,0.2,0,0.3l-6.2,0.6C216.3,92.6,216.5,93,216.6,93.3z M228.2,86.8l-0.7-0.8l2.9-2.4l1,0l0,11.3l-1.2,0l0-9.9L228.2,86.8
					z M240,90.3c-0.2,0.1-0.4,0.2-0.7,0.3c-0.3,0.1-0.6,0.1-0.9,0c-0.5,0-0.9-0.2-1.3-0.4s-0.8-0.5-1-0.8c-0.3-0.3-0.5-0.7-0.7-1.2
					s-0.2-0.9-0.2-1.4c0-0.5,0.2-1,0.4-1.4c0.2-0.4,0.5-0.8,0.8-1.1c0.4-0.3,0.8-0.5,1.2-0.6c0.5-0.1,1-0.2,1.5-0.2
					c0.5,0,1,0.2,1.5,0.4c0.4,0.2,0.8,0.5,1.1,0.8c0.3,0.3,0.5,0.7,0.7,1.2c0.2,0.5,0.2,0.9,0.2,1.5c0,0.6-0.2,1.1-0.4,1.6
					c-0.2,0.5-0.5,0.9-0.8,1.4l-3.4,4.8l-1.3-0.1L240,90.3L240,90.3z M244.4,85.5l0.1-1l6.6,1l-0.2,1l-6,9.5l-1.3-0.2l6.1-9.5
					L244.4,85.5z M258.2,88.9c-0.1-0.3-0.2-0.5-0.3-0.8s-0.4-0.4-0.6-0.6c-0.2-0.2-0.5-0.3-0.8-0.3c-0.6-0.1-1.1-0.1-1.6,0.2
					c-0.5,0.3-0.9,0.7-1.1,1.2l-1.1-0.5c0.2-0.4,0.4-0.7,0.7-1c0.3-0.3,0.6-0.5,0.9-0.7s0.7-0.3,1.1-0.3c0.4-0.1,0.8,0,1.3,0.1
					c0.4,0.1,0.9,0.3,1.2,0.5s0.7,0.5,0.9,0.8c0.2,0.3,0.4,0.7,0.5,1.1c0.1,0.4,0.1,0.9,0,1.4c-0.1,0.4-0.2,0.7-0.4,1
					c-0.2,0.3-0.4,0.5-0.6,0.8c-0.2,0.2-0.5,0.5-0.7,0.6s-0.6,0.4-0.9,0.6l-4.9,3.1l5.9,1.3l-0.2,1l-7.1-1.6l0.3-1.2l5.6-3.6
					c0.2-0.1,0.4-0.3,0.6-0.4s0.4-0.3,0.6-0.5c0.2-0.2,0.3-0.4,0.4-0.6c0.1-0.2,0.2-0.5,0.3-0.7C258.2,89.5,258.2,89.2,258.2,88.9z
					 M92.7,273.4l-16.4,6l-11.3-81.3l-1.4,0.5c-6.8,2.5-11.4,6.1-13.9,10.8c-2.5,4.8-2.2,11.4,0.9,20c1,2.8,2,4.7,2.9,5.6
					c0.5,0.5,1,1,1.5,1.6c-4.1,1.5-7.5,1.8-10.1,0.8s-4.7-3.4-6.1-7.4c-1.9-5.2-2.4-10.8-1.4-16.2c1-5.4,4-10.5,8.8-15.4
					c4.8-4.8,11.7-8.9,20.6-12.2c5.4-1.9,11-3.5,16.7-4.5c4.6-0.8,9.1-2,13.4-3.5c4.5-1.6,8.7-4,12.3-7.2c1.6,5,1.7,9.1,0.2,12.3
					s-4.6,5.6-9.2,7.3c-2.4,0.9-4.9,1.6-7.5,2.1c-2.6,0.5-6.3,1.1-11.1,1.8L92.7,273.4z M103.7,211.7c2.7-5.7,7.6-10.1,13.5-12.2
					c3.1-1.1,5.6-1.5,7.5-0.9c1.8,0.4,3.2,1.7,3.8,3.4l0.3,0.8l-0.9-6.5l16.4-6l5.9,41.7c0.1,1.3,0.4,2.6,0.9,3.8
					c1.2,3.3,3.3,4.3,6.5,3.2c1.7-0.6,3-1.9,3.8-3.4l-6.9-49l16.4-6l0.9,6.4c1.9-5.4,6.1-9.6,11.5-11.5c6.7-2.4,11.8-0.6,15.3,5.5
					c1.8-8,5.9-13.2,12.3-15.4c3.9-1.4,7.3-1.5,10.4-0.2s5.4,4.1,7,8.5c0.9,2.5,1.5,5,1.9,7.6c0.5,2.9,0.9,6.4,1.3,10.7
					c0.2,2.6,0.5,5.1,0.9,7.5c0.2,1.9,0.6,3.7,1.2,5.5c0.4,1.3,1.2,2.4,2.3,3.1c1.3,0.6,2.7,0.6,4,0c2.1-0.7,3.8-2.3,4.6-4.4
					c0,0,0,0,0,0c-0.8-1.4-1.5-3-2.1-4.7c-2.1-6.1-3.2-12.5-3.1-18.9c-0.1-6.7,1.4-13.3,4.3-19.4c2.7-5.7,7.6-10.1,13.5-12.2
					c3.1-1.1,5.6-1.5,7.5-0.9c1.8,0.4,3.2,1.7,3.8,3.4l0.3,0.8l-0.9-6.5l16.4-6L290,181c0.1,1.3,0.4,2.6,0.9,3.8
					c1.2,3.3,3.3,4.3,6.5,3.2c2.2-0.8,3.8-2.7,4.4-4.9c0-0.1-0.1-0.2-0.2-0.4c-0.8-2.5-1.4-5.1-1.8-7.7l-8.6-61.5l16-8.4l9.3,66.2
					c0.1,1.3,0.4,2.6,0.9,3.8c0.3,1.2,1.1,2.3,2.3,2.9c1.3,0.4,2.7,0.3,3.9-0.3c2.3-0.9,4.2-2.7,5.1-5c0,0,0-0.1,0.1-0.1
					c-0.7-1.2-1.3-2.6-1.8-4.1c-2-5.9-3.1-12.1-3.2-18.4c-0.3-6.9,1.1-13.8,4.1-20c3-6.3,8-10.7,15.1-13.3c8.4-3,13.9-0.9,16.5,6.4
					c1.5,4.2,1.8,8.8,0.6,13.1c-1.2,4.5-3.4,8.7-6.5,12.1c-3.2,3.6-7.1,6.4-11.5,8.4c0.7,2.3,1.1,3.9,1.4,4.6c1.4,3.7,2.9,6,4.7,6.9
					c1.8,0.9,4.1,0.8,7-0.3c3.7-1.2,7-3.6,9.5-6.7c0.8-1.1,1.5-2.3,2.3-3.5c-0.8-2.2-1-4.7-0.5-7c0.4-2.1,1.4-4,2.8-5.6
					c1-6.3,1.6-12.6,1.9-18.9c0.2-6.2,0.2-12.9-0.2-19.9l16-8.4c3.9,9.6,8.4,19.9,13.4,30.9c2,4.4,3.4,7.6,4.2,9.7
					c1.7,4.6,1.9,8.8,0.6,12.7c-1.2,3.7-3.4,7-6.4,9.5c-2.9,2.5-6.2,4.5-9.8,5.8c-3.2,1.2-6.6,1.7-10,1.2l0,0
					c-2.8-0.4-5.4-1.6-7.6-3.4c-0.5-0.4-0.9-0.9-1.4-1.3c-4.2,8.5-10.5,14.2-18.7,17.2c-5.6,2.1-10.5,2.2-14.7,0.4
					c-1.4-0.6-2.6-1.4-3.8-2.5c-0.7,1.9-1.5,3.5-2.6,4.9c-3.3,4.5-7.2,7.6-11.5,9.1c-3.2,1.3-6.9,1.2-10-0.3
					c-1.3-0.6-2.5-1.6-3.6-2.8c-0.6,1.4-1.2,2.6-2,3.7c-3.1,4.4-6.7,7.4-10.9,8.9c-2.8,1.2-5.9,1.2-8.7,0.1
					c-2.6-1.1-4.7-3.2-6.4-6.5c-1,3.6-2.5,7.1-4.6,10.2c-2.1,3-5.1,5.2-8.6,6.4c-4,1.6-8.5,1.4-12.4-0.5l0,0c-1.1-0.5-2.1-1.2-3-2
					c-0.5,1.5-1.1,2.8-1.8,4c-2.3,3.8-5.7,6.8-9.9,8.4c-4.7,1.7-8.5,1.7-11.6,0h0c-3.1-1.8-5.5-4.6-6.6-8c-0.6-1.8-1.1-3.7-1.4-5.6
					c-0.4-2.1-0.7-4.2-0.9-6.3c-0.3-2.1-0.4-3.4-0.5-4c-0.4-2.9-0.8-5.7-1.2-8.5c-0.3-2.2-0.8-4.4-1.5-6.6c-1.4-3.9-3.5-5.3-6.2-4.3
					c-2.1,0.9-3.6,2.6-4.2,4.8c-0.9,2.9-1.2,5.9-0.9,8.9l5.6,39.5l-16.4,6l-6-42.3c-0.1-1-0.3-2-0.7-3c-1.2-3.3-3-4.6-5.2-3.8
					c-2.2,0.8-3.8,2.7-4.5,4.9c-0.9,2.9-1.2,6-0.9,9l5.5,39.3l-16.4,6l-0.5-3.3c-2.9,3.9-6.3,6.6-10.1,8c-2.8,1.2-5.9,1.2-8.7,0.1
					c-2.6-1.1-4.7-3.3-6.3-6.6c-0.9,3.6-2.5,7.1-4.6,10.2c-2.1,3-5.1,5.2-8.6,6.4c-4,1.6-8.6,1.4-12.5-0.5v0c-4-1.9-7.1-6-9.4-12.3
					c-2.1-6.1-3.1-12.5-3-18.9C99.4,224.3,100.8,217.7,103.7,211.7z M309.1,306.4l-1.3,1.1l-11.1-12.8l1.6-1.4l16.9,4.4l0,0
					l-9.5-10.9l1.3-1.1l11.1,12.8l-1.6,1.4l-17-4.5l0,0L309.1,306.4z M292.8,317.5l-1.6,1l-2.9-18.3l1.4-0.9l15.3,10.4l-1.6,1
					l-4-2.8l-7.4,4.7L292.8,317.5z M277,325l-1.6,0.7l-7-15.4l2-0.9l14.9,9.1l0,0l-5.9-13.2l1.6-0.7l7,15.4l-2,0.9l-15-9.2l0,0
					L277,325z M235,301.3c-1.7,0.1-3.4,0.1-5.1,0.1c-23.3,0-45.5-8.5-63-24.2c-4.9-4.4-9.3-9.3-13.1-14.6c-0.8-1.1-0.6-2.7,0.5-3.5
					c1.1-0.8,2.7-0.6,3.5,0.5c3.6,5,7.8,9.6,12.4,13.8c36.6,32.9,93.2,30,126.2-6.7c0.9-1,2.5-1.1,3.5-0.2c1,0.9,1.1,2.5,0.2,3.5
					C283.3,288.9,260.2,300,235,301.3z M263.4,329.8l-1.9,0.4l-2.7-4l-8.6,1.8l-0.9,4.7l-1.9,0.4l3.7-18.1l1.6-0.3L263.4,329.8z
					 M232,334.1l-1.7,0.1l-1-17l2.2-0.1l10.7,13.9l0,0l-0.8-14.4l1.7-0.1l1,17l-2.2,0.1l-10.7-14l0,0L232,334.1z M226.5,316.8
					l-0.7,17l-1.7-0.1l0.7-17L226.5,316.8z M221.3,333.8l-2.1-0.3l-3.7-8.4l-2.8-0.3l-1,7.9l-1.7-0.2l2-16.8l4.9,0.6
					c0.8,0.1,1.6,0.3,2.3,0.5c0.7,0.2,1.3,0.6,1.7,1c0.5,0.4,0.8,0.9,1,1.5c0.2,0.6,0.3,1.3,0.2,2.1c-0.1,0.6-0.3,1.2-0.5,1.6
					s-0.6,0.9-1.1,1.2c-0.4,0.3-0.9,0.6-1.5,0.7c-0.5,0.2-1.1,0.2-1.8,0.2L221.3,333.8z M208,323.8c-0.4,1.4-0.9,2.5-1.7,3.4
					c-0.8,0.9-1.7,1.6-2.7,2c-1,0.5-2.1,0.7-3.2,0.8c-1.1,0.1-2.2,0-3.2-0.3l-5.5-1.5l4.4-16.4l5.5,1.5c1,0.3,2,0.7,2.9,1.3
					c0.9,0.6,1.7,1.4,2.4,2.3c0.6,0.9,1.1,2,1.3,3.1C208.4,321.2,208.4,322.4,208,323.8z M178.5,318.3l-3.4,3.4l-1.7-0.7l13.3-12.7
					l1.5,0.7l0.1,18.4l-1.8-0.7l0-4.8L178.5,318.3z M176.3,305.8l-13.1,9.3l-0.8-0.5l2.6-15.9l0,0l-7.9,12.6l-1.5-0.9l9-14.5
					l2.3,1.4l-2.6,15.1l0,0l12.3-9l2.3,1.4l-9,14.5l-1.5-0.9L176.3,305.8L176.3,305.8z M204.5,240.1l4.2-2.2l2.4,17.4
					c0,0.3,0.1,0.7,0.2,1c0.1,0.3,0.3,0.6,0.6,0.8c0.3,0.1,0.7,0,1-0.1c0.5-0.2,0.9-0.6,1.1-1.1c-0.2-0.4-0.4-0.8-0.5-1.2
					c-0.5-1.6-0.8-3.2-0.9-4.8c-0.1-1.8,0.3-3.6,1.1-5.2c0.8-1.7,2.2-2.9,4-3.5c2.2-0.8,3.6-0.2,4.3,1.7c0.4,1.1,0.5,2.3,0.2,3.4
					c-0.3,1.2-0.9,2.3-1.7,3.2c-0.8,0.9-1.9,1.7-3,2.2c0.1,0.3,0.2,0.6,0.3,0.9c0.6,1.7,1.5,2.3,2.8,1.8c0.6-0.2,1.2-0.6,1.6-1.1
					c0.5-0.5,0.9-1.1,1.3-1.8c0.5,3.1-0.6,5.2-3.6,6.3c-1.2,0.5-2.6,0.6-3.8,0.1c-0.4-0.2-0.7-0.5-1.1-0.8c-0.6,1.7-1.8,2.8-3.4,3.4
					c-0.7,0.3-1.5,0.3-2.2,0.1c-0.7-0.3-1.3-0.9-1.6-1.6c-0.2,1-0.6,1.9-1.2,2.7c-0.6,0.8-1.4,1.4-2.3,1.7c-1,0.4-2.2,0.4-3.2,0v0
					c-1.2-0.7-2.1-1.9-2.5-3.2c-0.6-1.6-0.8-3.3-0.8-5c0-1.8,0.4-3.5,1.1-5.1c0.7-1.5,2-2.7,3.6-3.2c0.6-0.3,1.3-0.4,2-0.2
					c0.4,0.1,0.8,0.4,1,0.8L204.5,240.1z M253.9,229.6c-0.3-1.1-1-2-2-2.5c-1.1-0.5-2.4-0.5-3.5,0c-2.3,0.9-4,3.3-4.9,7.2
					c-1,4.6-1.2,9.2-0.7,13.9c0.4,5,1.5,9.9,3.1,14.7c1.2,3.3,2.7,5.7,4.5,7c1.8,1.3,4.2,1.5,7.2,0.4c2.5-0.9,4.8-2.4,6.6-4.3
					c0.9-1,1.6-2,2.3-3.1c-0.2-0.4-0.3-0.8-0.5-1.3c-1.2-3.5-1.8-7.3-1.8-11c0-3.9,0.8-7.7,2.5-11.2c1.6-3.3,4.4-5.9,7.8-7.1
					c1.4-0.6,2.9-0.8,4.4-0.6c1,0.2,1.9,1,2.2,2l0.2,0.5l-0.5-3.8l9.5-3.4l3.4,24.1c0.1,0.8,0.2,1.5,0.5,2.2
					c0.2,0.7,0.7,1.3,1.3,1.6c0.8,0.2,1.6,0.1,2.3-0.2c0.5-0.2,1-0.4,1.4-0.8c0,2.1-0.3,4.2-0.9,6.2c-0.6,1.4-1.8,2.5-3.3,2.9
					c-1.6,0.7-3.4,0.7-5,0c-1.6-0.8-2.9-2.1-3.7-3.8c-1.2,5.1-3.7,8.3-7.6,9.7c-2.3,0.9-5,0.8-7.2-0.3h0c-1.2-0.5-2.2-1.4-3.1-2.6
					c-0.3,0.6-0.5,1.2-0.8,1.7c-2.7,4.8-6.9,8.5-12,10.4c-5,1.8-9.1,1.8-12.3,0.2c-3.2-1.7-5.9-5.4-8-11.2
					c-1.8-5.1-2.8-10.4-3.1-15.7c-0.4-5.6,0.4-11.2,2.5-16.4c2-5,6-8.8,11.1-10.5c2.8-1.2,5.8-1.4,8.8-0.7c2.5,0.7,4.4,2.6,5.4,5.6
					c0.7,1.5,0.8,3.2,0.5,4.9c-0.4,1.4-1.5,2.5-2.9,2.9c-1.4,0.6-3.1,0.5-4.4-0.3c0.7-0.9,1.2-2,1.2-3.2
					C254.5,232.3,254.4,230.9,253.9,229.6z M315.2,289.7c-1-0.8-1.7-1.8-2.3-2.8c-0.5-1-0.8-2.1-0.9-3.2c-0.1-1.1,0.1-2.2,0.4-3.3
					s1-2.1,1.8-3.1c0.4-0.5,0.9-0.9,1.3-1.3c0.5-0.4,1-0.7,1.5-0.9c0.5-0.2,1-0.4,1.6-0.5c0.5-0.1,1-0.1,1.6-0.1l-0.1,1.8
					c-0.3,0-0.7,0-1.1,0s-0.8,0.2-1.2,0.3c-0.4,0.2-0.8,0.4-1.2,0.7c-0.4,0.3-0.8,0.6-1.1,1c-0.7,0.8-1.2,1.7-1.5,2.6
					c-0.3,0.9-0.3,1.8-0.2,2.7c0.1,0.9,0.4,1.8,0.9,2.6c0.5,0.8,1.1,1.6,1.8,2.2c0.8,0.6,1.6,1.1,2.5,1.5c0.9,0.3,1.8,0.5,2.7,0.5
					c0.9,0,1.8-0.2,2.7-0.6c0.9-0.4,1.7-1,2.4-1.8c0.6-0.7,1.1-1.6,1.4-2.5c0.3-0.9,0.3-1.9,0-2.9l1.5-0.5c0.1,0.5,0.2,1,0.2,1.6
					c0,0.6,0,1.1-0.2,1.7c-0.1,0.6-0.3,1.2-0.6,1.8c-0.3,0.6-0.7,1.2-1.2,1.8c-0.8,1-1.8,1.7-2.8,2.3c-1,0.5-2.1,0.8-3.2,0.9
					c-1.1,0.1-2.2-0.1-3.3-0.4S316.2,290.6,315.2,289.7z M329.4,273.5l-11.6,0l1.2-1.8l9.7,0.2l-4.1-8.8l1.1-1.7l4.6,10.6l6.1,4
					l-0.9,1.4L329.4,273.5z M325.2,247.2c-0.3,1.4-0.9,2.7-1.8,3.8c-1,1.2-2.3,2.1-3.8,2.6l-17.5,6.4l6.1-35.6l-3.7,1.4
					c-0.9,0.3-1.8,0.7-2.7,1.2c-0.5,0.3-0.8,0.7-0.6,1.2c0,0.1,0.2,0.1,0.5,0.2c0.3,0,0.5,0.4,0.8,1c0.4,1,0.4,2.1-0.1,3
					c-0.5,0.8-1.3,1.5-2.2,1.8c-0.8,0.3-1.6,0.3-2.4,0c-0.8-0.3-1.4-1-1.7-1.8c-0.3-1.1-0.4-2.2-0.1-3.3c0.3-1.3,0.9-2.6,1.7-3.6
					c0.9-1.2,2.2-2,3.6-2.5l16.9-6.2l-6,33.8c0.3-0.1,0.8-0.2,1.5-0.4c1.2-0.3,2.5-0.6,3.6-1c1.9-0.7,2.8-1.5,2.6-2.4
					c-0.4,0.1-0.7,0.1-1.1-0.1c-0.3-0.2-0.6-0.5-0.7-0.9c-0.2-0.8-0.1-1.6,0.3-2.3c0.5-0.9,1.4-1.6,2.4-1.9c0.8-0.4,1.8-0.3,2.5,0.1
					c0.8,0.5,1.3,1.2,1.6,2C325.4,244.8,325.5,246.1,325.2,247.2z M139.9,290.1l-4.5,1.8l-1.3-1.3l17.2-6.8l1.2,1.2l-6.9,17.1
					l-1.4-1.4l1.8-4.5L139.9,290.1z M134.7,288.9l-1.2,1l-6-7.6l13.4-10.5l1.1,1.4l-12.2,9.6L134.7,288.9z M374.2,242.6
					c-9.5,38.5-33.4,71-67.4,91.5c-23.5,14.2-49.8,21.5-76.5,21.5c-11.9,0-23.9-1.4-35.8-4.4c-39.1-9.6-73-35.2-93.1-70
					c-0.7-1.2-0.3-2.7,0.9-3.4c1.2-0.7,2.7-0.3,3.4,0.9c19.4,33.7,52.2,58.4,90,67.7c37.2,9.2,75.8,3.3,108.6-16.5
					c32.8-19.8,55.9-51.2,65.1-88.5c0.3-1.3,1.7-2.2,3-1.8C373.7,239.9,374.5,241.3,374.2,242.6z M427.6,213.1
					c-0.6,1.4-1.8,2.5-3.3,2.9c-1.6,0.7-3.4,0.7-5,0c-1.6-0.8-3-2.1-3.7-3.8c-1.2,5.1-3.7,8.3-7.6,9.7c-2.3,0.9-5,0.8-7.2-0.3h0
					c-0.7-0.3-1.4-0.8-2-1.4c-0.4,1-0.9,1.9-1.4,2.7c-1.6,2.4-4,4.2-6.7,5.3c-1.9,0.8-4,0.7-5.9-0.1c-1.4-0.7-2.6-1.9-3.5-3.7
					c-2.4,5.7-6.3,9.6-11.5,11.4c-3.2,1.2-6.1,1.2-8.5,0.2c-0.8-0.3-1.5-0.8-2.1-1.4c-0.4,1-0.8,1.9-1.3,2.7
					c-1.5,2.3-3.7,4.1-6.3,5.2c-1.6,0.7-3.5,0.7-5.1,0c-1.7-0.8-3-2.2-3.7-3.9c-0.4,2.4-1.4,4.7-2.9,6.7c-1.2,1.4-2.8,2.5-4.6,3.1
					c-1.9,0.8-4,0.7-5.9-0.1h0c-1.8-0.8-3.1-2.6-4.1-5.2c-0.5-1.5-0.8-3-1-4.5l-3.2-22.8l9.5-3.5l3.4,24.2c0.1,0.7,0.2,1.3,0.5,1.9
					c0.7,1.8,1.7,2.5,3,2c1.2-0.5,2.2-1.5,2.6-2.7c0.5-1.6,0.7-3.3,0.6-5l-3.2-22.9l9.5-3.5l3.4,24.1c0.1,0.8,0.2,1.5,0.5,2.2
					c0.2,0.7,0.7,1.3,1.3,1.7c0.7,0.2,1.5,0.1,2.2-0.2c1.2-0.4,2.1-1.4,2.5-2.5c-0.4-0.8-0.8-1.7-1.2-2.6c-1.2-3.4-1.8-7-1.9-10.7
					c-0.2-4,0.6-8,2.4-11.6c1.7-3.7,4.9-6.5,8.8-7.7c4.8-1.8,8-0.5,9.6,3.7c0.9,2.4,1,5,0.4,7.5c-0.7,2.6-2,5-3.8,7
					c-1.8,2.1-4.1,3.8-6.7,4.9c0.4,1.4,0.7,2.2,0.8,2.7c0.8,2.2,1.7,3.5,2.7,4c1.3,0.5,2.7,0.4,4-0.2c2.2-0.7,4.1-2.1,5.5-3.9
					c1-1.4,1.8-2.8,2.5-4.3c-0.2-0.7-0.3-1.4-0.4-2.2l-5-35.6l9.3-4.9l5.4,38.4c0.1,0.8,0.2,1.5,0.5,2.2c0.2,0.7,0.7,1.3,1.3,1.7
					c0.8,0.2,1.6,0.2,2.3-0.2c1.3-0.5,2.4-1.6,3-2.9c-0.4-0.8-0.8-1.6-1.1-2.5c-1.2-3.5-1.8-7.3-1.8-11c0-3.9,0.8-7.7,2.5-11.2
					c1.6-3.3,4.4-5.9,7.8-7.1c1.4-0.6,2.9-0.8,4.4-0.5c1,0.2,1.9,1,2.2,2l0.2,0.5l-0.5-3.8l9.5-3.5l3.4,24.2
					c0.1,0.8,0.2,1.5,0.5,2.2c0.2,0.7,0.7,1.3,1.3,1.7c0.8,0.2,1.6,0.1,2.3-0.2c0.5-0.2,1-0.4,1.4-0.8
					C428.5,209,428.2,211.1,427.6,213.1z"/>
				<path class="st2" d="M411,190.1c-0.2-0.6-0.7-1.1-1.3-1.4c-0.7-0.4-1.6-0.4-2.3-0.1c-1.8,0.6-3,2.2-3.6,4.8
					c-0.7,2.8-0.9,5.7-0.6,8.6c0.2,2.7,0.7,5.4,1.6,8c0.8,2.2,1.6,3.5,2.5,3.9c0.9,0.4,1.9,0.4,2.7,0.1c1.2-0.5,2.1-1.5,2.6-2.7v0
					c0.7-1.6,1-3.4,0.7-5.1L411,190.1z"/>
				<path class="st2" d="M367.8,215.4c1.1-1.6,1.8-3.4,2.1-5.3c0.3-1.9,0.1-3.8-0.5-5.6c-0.7-1.8-1.5-2.5-2.6-2.1
					c-1.6,0.6-2.6,2.5-3.1,5.8c-0.5,3.5-0.5,7.1,0.2,10.6C365.5,218.1,366.9,216.9,367.8,215.4z"/>
				<path class="st2" d="M150.1,119.3c-0.4,0.1-0.7,0.3-1,0.6c-0.3,0.3-0.6,0.6-0.7,1s-0.2,0.7-0.2,1.1c0,0.4,0.1,0.7,0.2,1.1
					s0.4,0.7,0.7,1c0.3,0.3,0.6,0.5,0.9,0.7s0.7,0.3,1.1,0.3c0.4,0,0.7,0,1.1-0.1c0.4-0.1,0.7-0.3,1-0.6c0.3-0.3,0.5-0.6,0.7-1
					c0.2-0.4,0.2-0.7,0.2-1.1c0-0.4-0.1-0.7-0.2-1.1s-0.4-0.7-0.7-1c-0.3-0.3-0.6-0.6-1-0.7c-0.4-0.2-0.7-0.3-1.1-0.3
					C150.8,119.1,150.5,119.1,150.1,119.3z"/>
				<polygon class="st2" points="257.9,324.7 252.4,316.7 250.5,326.3 				"/>
				<path class="st2" d="M187.3,96.3c-0.4,0-0.8,0.1-1.2,0.2c-0.4,0.2-0.8,0.4-1,0.7c-0.3,0.3-0.5,0.6-0.6,0.9
					c-0.1,0.3-0.2,0.7-0.2,1.1c0,0.4,0.1,0.8,0.3,1.2c0.2,0.4,0.4,0.7,0.6,1c0.3,0.3,0.5,0.5,0.9,0.7c0.3,0.2,0.7,0.3,1.1,0.3
					c0.4,0,0.8-0.1,1.2-0.2c0.4-0.2,0.7-0.4,1-0.6c0.3-0.3,0.5-0.6,0.6-0.9s0.2-0.7,0.2-1.1c0-0.4-0.1-0.8-0.2-1.2
					c-0.2-0.4-0.4-0.7-0.6-1c-0.3-0.3-0.6-0.5-0.9-0.7C188,96.4,187.7,96.3,187.3,96.3z"/>
				<path class="st2" d="M211.7,90.5c-0.3-0.2-0.6-0.4-1-0.5c-0.4-0.1-0.8-0.1-1.2,0c-0.4,0.1-0.8,0.2-1.1,0.4
					c-0.3,0.2-0.6,0.5-0.8,0.8c-0.2,0.3-0.3,0.7-0.4,1c-0.1,0.4-0.1,0.8,0,1.2c0.1,0.4,0.2,0.8,0.4,1.1c0.2,0.3,0.4,0.6,0.7,0.9
					c0.3,0.2,0.6,0.4,1,0.5c0.4,0.1,0.8,0.1,1.2,0c0.4-0.1,0.8-0.2,1.1-0.4c0.3-0.2,0.6-0.5,0.8-0.8c0.2-0.3,0.4-0.6,0.4-1
					c0.1-0.4,0.1-0.8,0-1.2c-0.1-0.4-0.2-0.8-0.4-1.1C212.3,91,212,90.7,211.7,90.5z"/>
				<path class="st2" d="M166.8,109.9c0.2,0.4,0.5,0.7,0.8,0.9s0.6,0.4,1,0.5c0.3,0.1,0.7,0.1,1.1,0.1c0.4,0,0.7-0.2,1.1-0.4
					c0.4-0.2,0.7-0.5,0.9-0.8c0.2-0.3,0.4-0.7,0.4-1c0.1-0.4,0.1-0.7,0-1.1c-0.1-0.4-0.2-0.7-0.4-1.1c-0.2-0.4-0.5-0.7-0.8-0.9
					c-0.3-0.2-0.6-0.4-1-0.5c-0.3-0.1-0.7-0.1-1.1-0.1c-0.4,0-0.8,0.2-1.1,0.4c-0.4,0.2-0.7,0.5-0.9,0.8c-0.2,0.3-0.4,0.7-0.4,1
					c-0.1,0.4-0.1,0.7,0,1.1C166.5,109.2,166.6,109.5,166.8,109.9z"/>
				<path class="st2" d="M196.8,93.6c-0.5-0.3-1.2-0.4-1.9-0.1c-0.3,0.1-0.6,0.3-0.9,0.5c-0.3,0.2-0.5,0.5-0.6,0.8
					c-0.2,0.3-0.3,0.6-0.3,0.9c0,0.3,0,0.6,0,0.9l4.9-1.5C197.8,94.4,197.4,93.9,196.8,93.6z"/>
				<polygon class="st2" points="150.5,285.8 141.5,289.5 146.8,294.8 				"/>
				<path class="st2" d="M145.5,127.9c-0.3,0.4-0.5,0.7-0.7,1.1c-0.2,0.3-0.3,0.7-0.3,1c0,0.3,0.1,0.6,0.4,0.8
					c0.2,0.2,0.4,0.3,0.6,0.3c0.2,0.1,0.4,0.1,0.6,0c0.2,0,0.4-0.1,0.6-0.3c0.2-0.1,0.3-0.3,0.5-0.4c0.3-0.3,0.4-0.6,0.6-0.9
					s0.1-0.6,0.1-0.9s-0.1-0.6-0.3-0.9c-0.1-0.3-0.3-0.5-0.6-0.8l-0.4-0.4l-0.2,0.2C146.1,127.2,145.8,127.5,145.5,127.9z"/>
				<path class="st3" d="M447.4,226.7l-7.9-21.6c-1.6-4.1-1.6-8.7-0.1-12.8c6.6-16.7,12.5-41.9,3.4-66.9
					c-9.1-25-29.8-40.5-45.6-49.1c-3.8-2.2-6.7-5.7-8.1-9.9l-7.9-21.6c-0.5-1.5-1.3-3-2.3-4.2l-1.1-1.3l-32.5,11.8
					c-3.2,1.2-6.9,0.5-10.2-1.8C285.6,14.7,222.5,6.2,166.4,26.6C110.4,47,67.6,94,51.9,152.5c-1,3.9-3.5,6.8-6.7,7.9l-32.5,11.8
					v1.7c0,1.6,0.3,3.2,0.9,4.7l7.8,21.6c1.6,4.1,1.6,8.6,0.2,12.8c-6.6,16.7-12.5,41.9-3.4,66.9S48,320.4,63.8,329
					c3.8,2.2,6.7,5.7,8.1,9.9l7.9,21.6c0.5,1.5,1.3,2.9,2.3,4.2l1.1,1.3l32.5-11.8c3.2-1.2,6.9-0.5,10.2,1.8
					c49.6,34.7,112.6,43.2,168.7,22.8c56-20.4,98.9-67.5,114.6-125.9c1-3.9,3.5-6.8,6.7-7.9l32.5-11.8v-1.7
					C448.3,229.7,448,228.2,447.4,226.7z M413.9,239.7c-4.3,1.6-7.6,5.5-9,10.7c-15.3,57-57.3,103.1-112.2,123.1v0
					c-55,20-116.7,11.7-165.1-22.2c-4.5-3.1-9.5-4-13.8-2.4l-29.6,10.8c-0.1-0.2-0.2-0.4-0.3-0.7L76,337.4C74,331.8,70.2,327,65,324
					c-14.9-8.1-34.3-22.6-42.7-45.6s-2.8-46.6,3.4-62.4c2-5.6,1.9-11.7-0.2-17.3l-7.8-21.6c-0.1-0.2-0.1-0.5-0.2-0.7l29.6-10.8
					c4.3-1.6,7.6-5.5,9-10.7C71.5,97.9,113.4,51.9,168.4,31.9S285,20.2,333.4,54c4.4,3.1,9.5,4,13.8,2.4l29.7-10.8
					c0.1,0.2,0.2,0.4,0.4,0.6l7.8,21.6c1.9,5.6,5.8,10.4,10.9,13.4c14.9,8.1,34.3,22.6,42.7,45.6s2.8,46.6-3.4,62.3
					c-2,5.6-1.9,11.7,0.2,17.3l7.9,21.6c0.1,0.2,0.1,0.5,0.2,0.7L413.9,239.7z"/>
				<path class="st4" d="M100.4,190.7c4.6-1.6,7.6-4.1,9.2-7.3s1.4-7.3-0.2-12.3c-3.6,3.2-7.8,5.6-12.3,7.2
					c-4.4,1.5-8.9,2.7-13.4,3.5c-5.7,1.1-11.2,2.6-16.7,4.5c-9,3.3-15.8,7.3-20.6,12.2c-4.8,4.8-7.7,10-8.8,15.4
					c-1,5.4-0.5,11,1.4,16.2c1.4,4,3.5,6.4,6.1,7.4s6,0.7,10.1-0.8c-0.4-0.6-0.9-1.1-1.5-1.6c-0.9-0.9-1.9-2.8-2.9-5.6
					c-3.1-8.6-3.4-15.2-0.9-20c2.5-4.8,7.2-8.3,13.9-10.8l1.4-0.5l11.3,81.3l16.4-6l-10.9-78.8c4.8-0.7,8.5-1.3,11.1-1.8
					C95.4,192.2,97.9,191.5,100.4,190.7z"/>
				<path class="st4" d="M111.9,262.2L111.9,262.2c3.9,1.9,8.5,2.1,12.5,0.5c3.5-1.2,6.5-3.4,8.6-6.4c2.1-3.1,3.6-6.6,4.6-10.2
					c1.6,3.3,3.7,5.5,6.3,6.6c2.8,1.1,5.9,1,8.7-0.1c3.9-1.4,7.2-4.1,10.1-8l0.5,3.3l16.4-6l-5.5-39.3c-0.3-3,0-6.1,0.9-9
					c0.6-2.2,2.3-4.1,4.5-4.9c2.3-0.8,4,0.4,5.2,3.8c0.4,1,0.6,2,0.7,3l6,42.3l16.4-6l-5.6-39.5c-0.3-3,0-6,0.9-8.9
					c0.6-2.2,2.1-4,4.2-4.8c2.7-1,4.8,0.5,6.2,4.3c0.7,2.1,1.2,4.3,1.5,6.6c0.4,2.8,0.8,5.6,1.2,8.5c0,0.6,0.2,1.9,0.5,4
					c0.3,2.1,0.6,4.2,0.9,6.3c0.3,1.9,0.8,3.8,1.4,5.6c1.1,3.4,3.5,6.2,6.6,8h0c3.1,1.7,6.9,1.7,11.6,0c4.1-1.6,7.6-4.6,9.9-8.4
					c0.7-1.1,1.3-2.5,1.8-4c0.9,0.8,1.9,1.5,3,2l0,0c3.9,1.9,8.4,2.1,12.4,0.5c3.5-1.2,6.5-3.4,8.6-6.4c2.1-3.1,3.6-6.6,4.6-10.2
					c1.7,3.3,3.8,5.4,6.4,6.5c2.8,1.1,5.9,1,8.7-0.1c4.2-1.5,7.8-4.5,10.9-8.9c0.8-1.1,1.4-2.3,2-3.7c1.1,1.2,2.3,2.2,3.6,2.8
					c3.2,1.5,6.8,1.6,10,0.3c4.3-1.6,8.2-4.6,11.5-9.1c1-1.4,1.9-3.1,2.6-4.9c1.2,1.1,2.4,1.9,3.8,2.5c4.2,1.8,9.1,1.7,14.7-0.4
					c8.2-3,14.4-8.7,18.7-17.2c0.4,0.5,0.9,0.9,1.4,1.3c2.1,1.8,4.8,3,7.6,3.4l0,0c3.4,0.5,6.8,0,10-1.2c3.6-1.3,6.9-3.3,9.8-5.8
					c3-2.5,5.2-5.8,6.4-9.5c1.3-3.8,1.1-8-0.6-12.7c-0.7-2.1-2.1-5.3-4.2-9.7c-5-11-9.5-21.3-13.4-30.9l-16,8.4
					c0.3,7,0.4,13.6,0.2,19.9c-0.2,6.3-0.9,12.7-1.9,18.9c-1.4,1.6-2.4,3.5-2.8,5.6c-0.5,2.3-0.3,4.8,0.5,7
					c-0.7,1.2-1.5,2.4-2.3,3.5c-2.4,3.1-5.7,5.4-9.5,6.7c-2.9,1-5.2,1.2-7,0.3c-1.8-0.9-3.3-3.1-4.7-6.9c-0.3-0.8-0.8-2.3-1.4-4.6
					c4.4-1.9,8.3-4.8,11.5-8.4c3.1-3.4,5.4-7.6,6.5-12.1c1.1-4.3,0.9-8.9-0.6-13.1c-2.6-7.3-8.1-9.4-16.5-6.4
					c-7.1,2.6-12.2,7-15.1,13.3c-2.9,6.2-4.3,13.1-4.1,20c0.1,6.3,1.2,12.5,3.2,18.4c0.6,1.5,1.2,2.9,1.8,4.1c0,0,0,0.1-0.1,0.1
					c-1,2.3-2.8,4.1-5.1,5c-1.2,0.6-2.6,0.7-3.9,0.3c-1.1-0.6-1.9-1.6-2.3-2.9c-0.5-1.2-0.7-2.5-0.9-3.8l-9.3-66.2l-16,8.4l8.6,61.5
					c0.3,2.6,1,5.2,1.8,7.7c0,0.1,0.1,0.3,0.2,0.4c-0.6,2.2-2.3,4.1-4.4,4.9c-3.1,1.1-5.3,0.1-6.5-3.2c-0.5-1.2-0.8-2.5-0.9-3.8
					l-5.9-41.7l-16.4,6l0.9,6.5l-0.3-0.8c-0.6-1.7-2-3-3.8-3.4c-1.9-0.5-4.4-0.2-7.5,0.9c-6,2.1-10.9,6.5-13.5,12.2
					c-2.9,6-4.4,12.7-4.3,19.4c-0.1,6.4,1,12.8,3.1,18.9c0.6,1.7,1.3,3.3,2.1,4.7c0,0,0,0,0,0c-0.8,2.1-2.4,3.8-4.6,4.4
					c-1.3,0.6-2.7,0.6-4,0c-1.1-0.8-1.9-1.9-2.3-3.1c-0.6-1.8-1-3.7-1.2-5.5c-0.3-2.4-0.6-4.9-0.9-7.5c-0.4-4.2-0.8-7.8-1.3-10.7
					c-0.4-2.6-1-5.2-1.9-7.6c-1.6-4.3-4-7.2-7-8.5s-6.5-1.2-10.4,0.2c-6.4,2.3-10.5,7.4-12.3,15.4c-3.5-6.1-8.6-7.9-15.3-5.5
					c-5.4,1.9-9.6,6.2-11.5,11.5l-0.9-6.4l-16.4,6l6.9,49c-0.8,1.5-2.2,2.8-3.8,3.4c-3.1,1.1-5.3,0.1-6.5-3.2
					c-0.5-1.2-0.8-2.5-0.9-3.8l-5.9-41.7l-16.4,6l0.9,6.5l-0.3-0.8c-0.6-1.7-2-3-3.8-3.4c-1.9-0.5-4.4-0.2-7.5,0.9
					c-6,2.1-10.8,6.5-13.5,12.2c-2.9,6-4.3,12.6-4.2,19.3c-0.1,6.4,0.9,12.8,3,18.9C104.8,256.2,107.9,260.3,111.9,262.2z
					 M376,118.4c1.3,2.9,3.9,8.5,7.8,16.9c1.5,3,2.9,6.1,4.2,9.3c1.4,3.7,1.4,6.8,0.1,9.1h0l0,0c-1.4,2.4-3.6,4.2-6.2,5
					c-2.4,0.9-4.4,0.9-6,0c-1.1-0.6-2.1-1.7-2.9-3.3c0.1-0.5,0.3-0.9,0.4-1.4c0.6,0.1,1.4,0,2.2-0.3c1.4-0.5,2.5-1.6,3-3
					c0.5-1.4,0.5-3,0-4.4c-0.6-1.7-2.2-2.9-4.1-3C375.8,135,376.3,126.7,376,118.4z M340.6,132.5c0.9-5.7,2.7-9.1,5.4-10.1
					c1.9-0.7,3.4,0.5,4.5,3.6s1.4,6.5,0.9,9.7c-0.5,3.3-1.7,6.4-3.6,9.2v0h0c-1.7,2.6-4.1,4.6-7,5.9
					C339.8,144.8,339.7,138.6,340.6,132.5z M256.9,162.5c1.2-4.4,3.3-7.1,6.3-8.2c1.3-0.6,2.8-0.5,4,0.1c1,0.5,1.8,1.4,2.2,2.5
					l3.9,27.7c0.5,3,0.1,6-1.1,8.7v0c-0.9,2.1-2.5,3.8-4.6,4.7c-1.5,0.6-3.2,0.5-4.6-0.1c-1.5-0.7-2.9-2.9-4.3-6.7
					c-1.5-4.5-2.4-9.2-2.7-13.9C255.4,172.4,255.7,167.3,256.9,162.5z M117,213.4c1.2-4.4,3.2-7.1,6.3-8.2c1.3-0.6,2.8-0.5,4,0.1
					c1,0.5,1.8,1.4,2.2,2.5l3.9,27.7c0.5,3,0.1,6-1.1,8.7h0c-1.2,2.5-2.8,4-4.7,4.7c-1.5,0.6-3.2,0.5-4.6-0.1
					c-1.5-0.7-2.9-2.9-4.3-6.7c-1.5-4.5-2.5-9.2-2.8-13.9C115.5,223.2,115.9,218.2,117,213.4z"/>
				<path class="st4" d="M253.1,236.8c1.3,0.8,3,0.9,4.4,0.3c1.4-0.4,2.5-1.5,2.9-2.9c0.3-1.6,0.2-3.3-0.5-4.9
					c-1.1-3-2.9-4.9-5.4-5.6c-2.9-0.7-6-0.4-8.8,0.7c-5.1,1.7-9.1,5.5-11.1,10.5c-2.1,5.2-3,10.8-2.5,16.4
					c0.3,5.4,1.3,10.6,3.1,15.7c2.1,5.8,4.8,9.5,8,11.2c3.2,1.6,7.3,1.6,12.3-0.2c5.1-2,9.3-5.6,12-10.4c0.3-0.6,0.6-1.1,0.8-1.7
					c0.9,1.2,1.9,2.1,3.1,2.6h0c2.2,1.1,4.9,1.2,7.2,0.3c3.9-1.4,6.4-4.6,7.6-9.7c0.8,1.6,2.1,3,3.7,3.8c1.6,0.7,3.4,0.7,5,0
					c1.5-0.4,2.7-1.5,3.3-2.9c0.6-2,0.9-4.1,0.9-6.2c-0.4,0.4-0.9,0.6-1.4,0.8c-0.7,0.3-1.5,0.4-2.3,0.2c-0.7-0.3-1.1-0.9-1.3-1.6
					c-0.3-0.7-0.4-1.5-0.5-2.2l-3.4-24.1l-9.5,3.4l0.5,3.8l-0.2-0.5c-0.3-1-1.2-1.8-2.2-2c-1.5-0.2-3-0.1-4.4,0.6
					c-3.5,1.2-6.3,3.8-7.8,7.1c-1.7,3.5-2.5,7.3-2.5,11.2c0,3.7,0.5,7.5,1.8,11c0.2,0.4,0.3,0.9,0.5,1.3c-0.6,1.1-1.4,2.2-2.3,3.1
					c-1.8,2-4,3.4-6.6,4.3c-3,1.1-5.4,0.9-7.2-0.4c-1.8-1.3-3.3-3.7-4.5-7c-1.7-4.7-2.7-9.7-3.1-14.7c-0.5-4.6-0.2-9.3,0.7-13.9
					c1-4,2.6-6.4,4.9-7.2c1.1-0.5,2.4-0.5,3.5,0c1,0.6,1.7,1.5,2,2.5c0.5,1.3,0.6,2.7,0.4,4C254.3,234.8,253.8,235.9,253.1,236.8z
					 M274.4,240.4c0.7-2.5,1.9-4.1,3.6-4.8c0.8-0.3,1.6-0.3,2.3,0.1c0.6,0.3,1,0.8,1.3,1.4l2.3,16.1c0.3,1.7,0.1,3.5-0.7,5l0,0
					c-0.5,1.2-1.5,2.2-2.7,2.8c-0.9,0.3-1.8,0.3-2.7-0.1c-0.9-0.4-1.7-1.7-2.5-3.9c-0.9-2.6-1.4-5.3-1.6-8
					C273.5,246.1,273.7,243.2,274.4,240.4z"/>
				<path class="st4" d="M323.4,241.7c-0.8-0.4-1.7-0.5-2.5-0.1c-1,0.3-1.9,1-2.4,1.9c-0.4,0.7-0.5,1.5-0.3,2.3
					c0.1,0.4,0.4,0.7,0.7,0.9c0.3,0.2,0.7,0.2,1.1,0.1c0.2,0.9-0.7,1.8-2.6,2.4c-1.2,0.4-2.4,0.7-3.6,1c-0.7,0.2-1.2,0.3-1.5,0.4
					l6-33.8l-16.9,6.2c-1.4,0.5-2.7,1.3-3.6,2.5c-0.9,1-1.5,2.3-1.7,3.6c-0.3,1.1-0.2,2.2,0.1,3.3c0.2,0.8,0.9,1.5,1.7,1.8
					c0.8,0.3,1.6,0.3,2.4,0c0.9-0.3,1.7-0.9,2.2-1.8c0.5-0.9,0.5-2,0.1-3c-0.2-0.6-0.5-1-0.8-1c-0.3,0-0.5-0.1-0.5-0.2
					c-0.2-0.4,0-0.8,0.6-1.2c0.8-0.5,1.7-0.9,2.7-1.2l3.7-1.4l-6.1,35.6l17.5-6.4c1.5-0.5,2.8-1.4,3.8-2.6c0.9-1.1,1.5-2.4,1.8-3.8
					c0.3-1.2,0.2-2.4-0.2-3.6C324.8,242.8,324.2,242.1,323.4,241.7z"/>
				<path class="st4" d="M424.8,207.9c-0.7-0.3-1.1-0.9-1.3-1.7c-0.3-0.7-0.4-1.4-0.5-2.2l-3.4-24.2l-9.5,3.5l0.5,3.8l-0.2-0.5
					c-0.3-1-1.2-1.8-2.2-2c-1.5-0.2-3-0.1-4.4,0.5c-3.5,1.2-6.3,3.8-7.8,7.1c-1.7,3.5-2.5,7.3-2.5,11.2c0,3.7,0.6,7.5,1.8,11
					c0.3,0.9,0.7,1.8,1.1,2.5c-0.6,1.3-1.6,2.4-3,2.9c-0.7,0.3-1.5,0.4-2.3,0.2c-0.7-0.3-1.1-0.9-1.3-1.7c-0.3-0.7-0.4-1.5-0.5-2.2
					l-5.4-38.4l-9.3,4.9l5,35.6c0.1,0.7,0.2,1.4,0.4,2.2c-0.7,1.5-1.6,2.9-2.5,4.3c-1.4,1.8-3.3,3.2-5.5,3.9c-1.3,0.6-2.7,0.6-4,0.2
					c-1-0.5-1.9-1.8-2.7-4c-0.2-0.4-0.4-1.3-0.8-2.7c2.5-1.1,4.8-2.8,6.7-4.9c1.8-2,3.1-4.4,3.8-7c0.7-2.5,0.5-5.1-0.4-7.5
					c-1.5-4.2-4.7-5.4-9.6-3.7c-3.9,1.3-7,4.1-8.8,7.7c-1.7,3.6-2.5,7.6-2.4,11.6c0.1,3.6,0.7,7.2,1.9,10.7c0.4,1,0.7,1.9,1.2,2.6
					c-0.4,1.2-1.3,2.1-2.5,2.5c-0.7,0.3-1.5,0.4-2.2,0.2c-0.7-0.3-1.1-0.9-1.3-1.7c-0.3-0.7-0.4-1.5-0.5-2.2l-3.4-24.1l-9.5,3.5
					l3.2,22.9c0.2,1.7,0,3.4-0.6,5c-0.4,1.2-1.4,2.2-2.6,2.7c-1.3,0.5-2.3-0.2-3-2c-0.2-0.6-0.4-1.3-0.5-1.9l-3.4-24.2l-9.5,3.5
					l3.2,22.8c0.2,1.5,0.5,3,1,4.5c1,2.6,2.3,4.4,4.1,5.2h0c1.8,0.9,4,0.9,5.9,0.1c1.8-0.6,3.3-1.7,4.6-3.1c1.5-1.9,2.5-4.2,2.9-6.7
					c0.7,1.7,2,3.1,3.7,3.9c1.6,0.7,3.5,0.6,5.1,0c2.6-1,4.8-2.8,6.3-5.2c0.5-0.8,1-1.7,1.3-2.7c0.7,0.6,1.4,1.1,2.1,1.4
					c2.4,1,5.2,1,8.5-0.2c5.2-1.9,9.1-5.7,11.5-11.4c0.9,1.8,2.1,3.1,3.5,3.7c1.9,0.9,4,0.9,5.9,0.1c2.7-1.1,5-2.9,6.7-5.3
					c0.6-0.8,1-1.7,1.4-2.7c0.6,0.6,1.3,1.1,2,1.4h0c2.2,1.1,4.9,1.2,7.2,0.3c3.9-1.4,6.4-4.7,7.6-9.7c0.8,1.6,2.1,3,3.7,3.8
					c1.6,0.7,3.4,0.7,5,0c1.5-0.4,2.7-1.5,3.3-2.9c0.6-2,0.9-4.1,0.9-6.2c-0.4,0.4-0.9,0.6-1.4,0.8
					C426.4,208.1,425.6,208.1,424.8,207.9z M363.7,208.2c0.5-3.3,1.5-5.3,3.1-5.8c1.1-0.4,2,0.3,2.6,2.1c0.6,1.8,0.8,3.7,0.5,5.6
					c-0.3,1.9-1,3.7-2.1,5.3c-1,1.5-2.4,2.7-4,3.4C363.2,215.3,363.1,211.7,363.7,208.2z M412.6,211.2L412.6,211.2
					c-0.5,1.2-1.4,2.2-2.6,2.7c-0.9,0.3-1.9,0.3-2.7-0.1c-0.9-0.4-1.7-1.7-2.5-3.9c-0.9-2.6-1.4-5.3-1.6-8c-0.3-2.9-0.1-5.8,0.6-8.6
					c0.6-2.6,1.9-4.1,3.6-4.8c0.8-0.3,1.6-0.3,2.3,0.1c0.6,0.3,1,0.8,1.3,1.4l2.2,16.1C413.6,207.9,413.3,209.7,412.6,211.2z"/>
				<path class="st4" d="M204.5,246.5c-0.7-0.1-1.4,0-2,0.2c-1.6,0.5-2.8,1.7-3.6,3.2c-0.8,1.6-1.1,3.3-1.1,5.1c0,1.7,0.3,3.4,0.8,5
					c0.4,1.4,1.2,2.5,2.5,3.2v0c1,0.5,2.2,0.5,3.2,0c0.9-0.3,1.7-0.9,2.3-1.7c0.5-0.8,0.9-1.7,1.2-2.7c0.3,0.7,0.9,1.3,1.6,1.6
					c0.7,0.2,1.5,0.2,2.2-0.1c1.7-0.6,2.8-1.8,3.4-3.4c0.3,0.3,0.7,0.6,1.1,0.8c1.2,0.5,2.6,0.4,3.8-0.1c2.9-1,4.1-3.2,3.6-6.3
					c-0.3,0.7-0.8,1.2-1.3,1.8c-0.5,0.5-1,0.8-1.6,1.1c-1.2,0.5-2.2-0.1-2.8-1.8c-0.1-0.3-0.2-0.6-0.3-0.9c1.1-0.5,2.2-1.2,3-2.2
					c0.8-0.9,1.4-2,1.7-3.2c0.3-1.1,0.2-2.3-0.2-3.4c-0.7-1.9-2.1-2.5-4.3-1.7c-1.8,0.6-3.2,1.8-4,3.5c-0.8,1.6-1.2,3.4-1.1,5.2
					c0,1.6,0.3,3.3,0.9,4.8c0.1,0.4,0.3,0.8,0.5,1.2c-0.2,0.5-0.6,0.9-1.1,1.1c-0.3,0.2-0.7,0.2-1,0.1c-0.3-0.2-0.5-0.4-0.6-0.8
					c-0.1-0.3-0.2-0.7-0.2-1l-2.4-17.4l-4.2,2.2l1,7.2C205.3,247,204.9,246.6,204.5,246.5z M217.2,245.3c0.2-1.5,0.7-2.4,1.4-2.6
					c0.5-0.2,0.9,0.1,1.2,0.9s0.4,1.7,0.2,2.6c-0.1,0.9-0.5,1.7-1,2.4v0v0c-0.4,0.7-1.1,1.2-1.8,1.5
					C217,248.5,217,246.9,217.2,245.3z M205.7,248.9l1,7.4l0.1,0.1c0.1,0.8,0,1.5-0.3,2.2c-0.2,0.5-0.7,0.9-1.2,1.2
					c-0.4,0.2-0.8,0.2-1.2,0c-0.6-0.4-1-1.1-1.1-1.8c-0.4-1.2-0.6-2.4-0.7-3.6c-0.1-1.3,0-2.6,0.3-3.9c0.1-1,0.8-1.8,1.6-2.2
					C204.7,248.1,205.4,248.4,205.7,248.9z"/>
				<polygon class="st4" points="140.9,271.7 127.5,282.2 133.5,289.8 134.7,288.9 129.8,282.6 142,273.1 				"/>
				<path class="st4" d="M145.6,302.2l6.9-17.1l-1.2-1.2l-17.2,6.8l1.3,1.3l4.5-1.8l6.2,6.2l-1.8,4.5L145.6,302.2z M141.5,289.5
					l9-3.7l-3.8,9L141.5,289.5z"/>
				<polygon class="st4" points="170,319.3 179,304.8 176.8,303.4 164.4,312.4 164.4,312.4 167,297.3 164.7,295.9 155.7,310.4 
					157.2,311.3 165,298.8 165.1,298.8 162.4,314.6 163.2,315.1 176.3,305.8 176.4,305.8 168.5,318.4 				"/>
				<path class="st4" d="M188.3,327.3l-0.1-18.4l-1.5-0.7L173.3,321l1.7,0.7l3.4-3.4l8.1,3.4l0,4.8L188.3,327.3z M179.7,317.1
					l6.9-6.8l-0.1,9.7L179.7,317.1z"/>
				<path class="st4" d="M204.5,314.6c-0.9-0.6-1.9-1.1-2.9-1.3l-5.5-1.5l-4.4,16.4l5.5,1.5c1,0.3,2.1,0.4,3.2,0.3
					c1.1-0.1,2.2-0.3,3.2-0.8c1-0.5,1.9-1.1,2.7-2c0.8-0.9,1.4-2,1.7-3.4c0.4-1.4,0.4-2.6,0.2-3.8c-0.2-1.2-0.7-2.2-1.3-3.1
					C206.2,316,205.4,315.2,204.5,314.6z M206.2,323.3c-0.2,0.9-0.6,1.6-1.1,2.4c-0.5,0.7-1.2,1.3-1.9,1.8c-0.8,0.5-1.7,0.8-2.7,0.9
					c-1,0.1-2.2,0-3.4-0.3l-3.3-0.9l3.6-13.5l3.3,0.9c1.2,0.3,2.3,0.8,3.1,1.4s1.4,1.3,1.9,2.1s0.7,1.6,0.8,2.5
					C206.5,321.6,206.5,322.5,206.2,323.3z"/>
				<path class="st4" d="M220.6,324.3c0.4-0.3,0.8-0.7,1.1-1.2s0.5-1,0.5-1.6c0.1-0.8,0-1.5-0.2-2.1c-0.2-0.6-0.6-1.1-1-1.5
					c-0.5-0.4-1-0.7-1.7-1c-0.7-0.2-1.4-0.4-2.3-0.5l-4.9-0.6l-2,16.8l1.7,0.2l1-7.9l2.8,0.3l3.7,8.4l2.1,0.3l-3.9-8.6
					c0.6,0,1.2-0.1,1.8-0.2C219.7,324.9,220.2,324.6,220.6,324.3z M215.8,323.7l-3-0.4l0.7-6l3,0.4c0.6,0.1,1.2,0.2,1.7,0.4
					c0.5,0.2,0.9,0.4,1.3,0.7c0.3,0.3,0.6,0.6,0.7,1c0.2,0.4,0.2,0.9,0.1,1.4c-0.1,1-0.6,1.7-1.4,2.1
					C218.3,323.7,217.2,323.9,215.8,323.7z"/>
				
					<rect x="216.7" y="324.5" transform="matrix(3.871887e-02 -0.9993 0.9993 3.871887e-02 -108.5332 537.8322)" class="st4" width="17.1" height="1.7"/>
				<polygon class="st4" points="241.9,333.5 244,333.4 243.1,316.5 241.3,316.6 242.2,331 242.1,331 231.4,317.1 229.3,317.2 
					230.2,334.2 232,334.1 231.1,319.5 231.2,319.5 				"/>
				<path class="st4" d="M247.5,333.1l1.9-0.4l0.9-4.7l8.6-1.8l2.7,4l1.9-0.4l-10.6-15.2l-1.6,0.3L247.5,333.1z M257.9,324.7
					l-7.3,1.5l1.8-9.6L257.9,324.7z"/>
				<polygon class="st4" points="286.1,321 288,320.1 281.1,304.6 279.5,305.3 285.4,318.5 285.4,318.5 270.5,309.4 268.5,310.3 
					275.5,325.7 277,325 271.1,311.7 271.1,311.7 				"/>
				<path class="st4" d="M303.4,310.8l1.6-1l-15.3-10.4l-1.4,0.9l2.9,18.3l1.6-1l-0.8-4.8l7.4-4.7L303.4,310.8z M291.7,311.1
					l-1.7-9.6l8,5.6L291.7,311.1z"/>
				<polygon class="st4" points="316.5,299.9 318.2,298.5 307,285.8 305.7,286.9 315.2,297.8 315.2,297.8 298.3,293.4 296.6,294.8 
					307.8,307.6 309.1,306.4 299.5,295.5 299.5,295.4 				"/>
				<path class="st4" d="M321.6,292c1.1-0.1,2.2-0.4,3.2-0.9c1-0.5,2-1.3,2.8-2.3c0.5-0.6,0.9-1.2,1.2-1.8c0.3-0.6,0.5-1.2,0.6-1.8
					c0.1-0.6,0.2-1.2,0.2-1.7c0-0.6-0.1-1.1-0.2-1.6l-1.5,0.5c0.3,1,0.3,2,0,2.9c-0.3,0.9-0.7,1.8-1.4,2.5c-0.7,0.8-1.5,1.4-2.4,1.8
					c-0.9,0.4-1.8,0.6-2.7,0.6c-0.9,0-1.8-0.1-2.7-0.5c-0.9-0.3-1.7-0.8-2.5-1.5c-0.7-0.6-1.4-1.4-1.8-2.2c-0.5-0.8-0.8-1.7-0.9-2.6
					c-0.1-0.9,0-1.8,0.2-2.7c0.3-0.9,0.8-1.8,1.5-2.6c0.4-0.4,0.7-0.8,1.1-1c0.4-0.3,0.8-0.5,1.2-0.7c0.4-0.2,0.8-0.3,1.2-0.3
					s0.8,0,1.1,0l0.1-1.8c-0.5-0.1-1,0-1.6,0.1c-0.5,0.1-1.1,0.3-1.6,0.5c-0.5,0.2-1,0.6-1.5,0.9c-0.5,0.4-0.9,0.8-1.3,1.3
					c-0.8,1-1.4,2-1.8,3.1s-0.5,2.2-0.4,3.3c0.1,1.1,0.4,2.2,0.9,3.2c0.5,1,1.3,2,2.3,2.8c1,0.8,2,1.5,3.1,1.8
					S320.5,292.1,321.6,292z"/>
				<polygon class="st4" points="336.5,276.1 330.4,272.1 325.7,261.5 324.6,263.1 328.7,272 319,271.7 317.8,273.5 329.4,273.5 
					335.5,277.5 				"/>
				<polygon class="st4" points="134.7,128.4 129.5,135.4 130.3,136 132.6,133 140.8,139.2 141.5,138.3 133.3,132.1 135.6,129.1 
									"/>
				<path class="st4" d="M138.7,130.7c-0.2-0.1-0.4-0.3-0.5-0.4l-0.7,0.8c0.2,0.1,0.4,0.3,0.7,0.5c0.3,0.2,0.5,0.4,0.6,0.5l4.5,3.8
					l0.7-0.8l-2.9-2.5c-0.4-0.3-0.7-0.6-0.9-1c-0.2-0.3-0.3-0.6-0.4-0.9c0-0.3,0-0.6,0.1-0.9c0.1-0.3,0.2-0.5,0.4-0.7
					c0.1-0.1,0.2-0.2,0.3-0.3c0.1-0.1,0.2-0.2,0.3-0.2l-0.7-0.8c-0.1,0.1-0.2,0.1-0.3,0.2s-0.2,0.2-0.3,0.3
					c-0.3,0.4-0.5,0.9-0.6,1.4s0,1,0.2,1.4l0,0C139.1,131,138.9,130.9,138.7,130.7z"/>
				<path class="st4" d="M145.4,124.4c-0.4-0.1-0.7-0.2-1-0.1c-0.3,0-0.7,0.2-1,0.3c-0.3,0.2-0.6,0.4-0.9,0.7
					c-0.4,0.5-0.8,1-0.9,1.5c-0.2,0.5-0.3,1-0.3,1.4l0.9,0c0-0.4,0.1-0.8,0.2-1.1c0.1-0.4,0.4-0.7,0.7-1.1c0.4-0.5,0.9-0.7,1.4-0.8
					c0.5,0,0.9,0.2,1.4,0.6l0.2,0.2c-0.5,0.5-0.9,1-1.3,1.5c-0.4,0.5-0.7,1-0.9,1.5c-0.2,0.5-0.3,0.9-0.2,1.4c0,0.4,0.3,0.9,0.7,1.3
					c0.3,0.3,0.6,0.5,0.9,0.5c0.3,0.1,0.6,0.1,0.9,0c0.3-0.1,0.6-0.2,0.9-0.3c0.3-0.2,0.5-0.4,0.7-0.6c0.4-0.4,0.7-0.9,0.8-1.4
					c0.1-0.5,0.1-1,0-1.6l0,0c0.1,0.1,0.3,0.3,0.5,0.4c0.2,0.1,0.3,0.2,0.5,0.3l0.7-0.7c-0.2-0.1-0.4-0.3-0.6-0.5
					c-0.2-0.2-0.5-0.4-0.7-0.6l-2.4-2.2C146.1,124.7,145.7,124.5,145.4,124.4z M147,127c0.2,0.2,0.4,0.5,0.6,0.8
					c0.1,0.3,0.2,0.6,0.3,0.9s0,0.6-0.1,0.9s-0.3,0.6-0.6,0.9c-0.1,0.2-0.3,0.3-0.5,0.4c-0.2,0.1-0.4,0.2-0.6,0.3
					c-0.2,0-0.4,0-0.6,0c-0.2,0-0.4-0.2-0.6-0.3c-0.3-0.2-0.4-0.5-0.4-0.8c0-0.3,0.1-0.6,0.3-1c0.2-0.3,0.4-0.7,0.7-1.1
					c0.3-0.4,0.6-0.7,0.9-1l0.2-0.2L147,127z"/>
				<path class="st4" d="M149.8,118.5c-0.5,0.2-1,0.4-1.4,0.8c-0.4,0.4-0.8,0.8-1,1.3c-0.2,0.5-0.3,0.9-0.3,1.4s0.1,1,0.3,1.4
					c0.2,0.5,0.5,0.9,0.8,1.3c0.4,0.4,0.8,0.7,1.3,0.9c0.5,0.2,0.9,0.4,1.4,0.4c0.5,0,1,0,1.5-0.2c0.5-0.2,0.9-0.5,1.4-0.9
					c0.4-0.4,0.7-0.8,0.9-1.3c0.2-0.5,0.3-1.1,0.2-1.6l0,0l0.9,0.9l0.8-0.7l-8.2-8.9l-0.8,0.7l4,4.3l0,0
					C150.9,118.3,150.4,118.3,149.8,118.5z M152.3,119.4c0.4,0.2,0.7,0.4,1,0.7c0.3,0.3,0.5,0.7,0.7,1s0.2,0.7,0.2,1.1
					c0,0.4-0.1,0.7-0.2,1.1c-0.2,0.4-0.4,0.7-0.7,1c-0.3,0.3-0.7,0.5-1,0.6c-0.4,0.1-0.7,0.2-1.1,0.1c-0.4,0-0.7-0.1-1.1-0.3
					s-0.7-0.4-0.9-0.7c-0.3-0.3-0.5-0.6-0.7-1s-0.2-0.7-0.2-1.1c0-0.4,0.1-0.7,0.2-1.1s0.4-0.7,0.7-1c0.3-0.3,0.6-0.5,1-0.6
					c0.4-0.1,0.7-0.2,1.1-0.1C151.6,119.1,151.9,119.2,152.3,119.4z"/>
				<path class="st4" d="M152.3,113.4c0.1-0.1,0.2-0.3,0.3-0.5c0-0.2,0-0.4-0.2-0.6c-0.1-0.2-0.3-0.3-0.5-0.3c-0.2,0-0.4,0-0.5,0.2
					c-0.1,0.1-0.2,0.3-0.3,0.5c0,0.2,0,0.4,0.2,0.6c0.1,0.2,0.3,0.3,0.5,0.3C151.9,113.6,152.1,113.5,152.3,113.4z"/>
				
					<rect x="155.5" y="114.2" transform="matrix(0.7691 -0.6391 0.6391 0.7691 -39.3292 126.9403)" class="st4" width="1.1" height="7.5"/>
				<path class="st4" d="M157.2,112.2c-0.3,0.5-0.4,0.9-0.5,1.4c-0.1,0.5,0,1,0.1,1.5s0.4,1,0.7,1.4c0.3,0.5,0.7,0.8,1.2,1.1
					c0.4,0.3,0.9,0.4,1.4,0.5c0.5,0.1,1,0,1.5-0.1c0.5-0.1,1-0.4,1.5-0.8c0.5-0.4,0.9-0.8,1.1-1.3c0.2-0.5,0.4-1,0.4-1.5l-1,0
					c0,0.4-0.1,0.7-0.2,1.1c-0.2,0.3-0.4,0.7-0.8,0.9c-0.4,0.3-0.7,0.4-1.1,0.5c-0.4,0.1-0.7,0.1-1.1,0c-0.4-0.1-0.7-0.2-1-0.4
					c-0.3-0.2-0.6-0.5-0.9-0.8s-0.4-0.7-0.6-1.1c-0.1-0.4-0.2-0.7-0.1-1.1c0-0.4,0.2-0.7,0.3-1.1c0.2-0.3,0.5-0.6,0.8-0.9
					c0.3-0.2,0.7-0.4,1.1-0.5c0.4-0.1,0.7,0,1.1,0.1l0.3-1c-0.5-0.1-1-0.2-1.6,0c-0.5,0.1-1,0.4-1.4,0.7
					C157.8,111.4,157.4,111.8,157.2,112.2z"/>
				
					<rect x="163.6" y="108" transform="matrix(0.8246 -0.5657 0.5657 0.8246 -34.404 112.4684)" class="st4" width="1.1" height="7.5"/>
				<path class="st4" d="M160.3,107c0.2,0,0.4,0,0.6-0.1c0.2-0.1,0.3-0.3,0.3-0.5s0-0.4-0.1-0.6c-0.1-0.2-0.3-0.3-0.5-0.3
					c-0.2,0-0.4,0-0.6,0.1s-0.3,0.3-0.3,0.5c0,0.2,0,0.4,0.1,0.6S160.1,107,160.3,107z"/>
				<polygon class="st4" points="167.3,100.7 166.1,101.5 165.9,104.3 166.8,103.8 				"/>
				<path class="st4" d="M165.3,109c0.1,0.5,0.3,1,0.6,1.5c0.3,0.5,0.6,0.9,1.1,1.2c0.4,0.3,0.9,0.5,1.3,0.6c0.5,0.1,1,0.1,1.5,0
					c0.5-0.1,1-0.3,1.5-0.6c0.5-0.3,0.9-0.7,1.2-1.1s0.5-0.9,0.6-1.4s0.1-1,0.1-1.5c-0.1-0.5-0.3-1-0.6-1.5
					c-0.3-0.5-0.6-0.9-1.1-1.2c-0.4-0.3-0.9-0.5-1.3-0.6c-0.5-0.1-1-0.1-1.5,0c-0.5,0.1-1,0.3-1.5,0.6c-0.5,0.3-0.9,0.7-1.2,1.1
					c-0.3,0.4-0.5,0.9-0.6,1.4C165.2,108,165.2,108.5,165.3,109z M166.4,107.7c0.1-0.4,0.2-0.7,0.4-1c0.2-0.3,0.5-0.6,0.9-0.8
					c0.4-0.2,0.7-0.4,1.1-0.4c0.4,0,0.7,0,1.1,0.1c0.3,0.1,0.7,0.3,1,0.5c0.3,0.2,0.6,0.5,0.8,0.9c0.2,0.4,0.4,0.7,0.4,1.1
					c0.1,0.4,0.1,0.8,0,1.1c-0.1,0.4-0.2,0.7-0.4,1c-0.2,0.3-0.5,0.6-0.9,0.8c-0.4,0.2-0.7,0.4-1.1,0.4c-0.4,0-0.7,0-1.1-0.1
					c-0.3-0.1-0.7-0.3-1-0.5s-0.6-0.5-0.8-0.9c-0.2-0.4-0.4-0.7-0.4-1.1C166.3,108.4,166.3,108,166.4,107.7z"/>
				<path class="st4" d="M174.7,102c0.2-0.2,0.4-0.4,0.7-0.5c0.4-0.2,0.7-0.3,1-0.3c0.3,0,0.6,0.1,0.8,0.2c0.2,0.1,0.5,0.3,0.7,0.6
					c0.2,0.3,0.4,0.6,0.6,0.9l1.9,3.7l1-0.5l-2.1-4.1c-0.4-0.8-1-1.4-1.7-1.7c-0.7-0.3-1.4-0.2-2.3,0.2c-0.5,0.2-0.9,0.6-1.2,1.1
					c-0.3,0.5-0.4,0.9-0.4,1.4l0,0c-0.1-0.1-0.2-0.3-0.3-0.5c-0.1-0.2-0.2-0.4-0.4-0.6l-0.9,0.5c0.1,0.2,0.3,0.5,0.4,0.7
					c0.2,0.3,0.3,0.5,0.4,0.7l2.7,5.2l1-0.5l-1.8-3.4c-0.2-0.4-0.4-0.9-0.4-1.2c-0.1-0.4,0-0.7,0-1
					C174.4,102.5,174.5,102.2,174.7,102z"/>
				<path class="st4" d="M187.3,95.4c-0.6,0-1.1,0-1.6,0.2c-0.5,0.2-1,0.5-1.4,0.9c-0.4,0.4-0.6,0.8-0.8,1.2
					c-0.2,0.5-0.3,0.9-0.3,1.5c0,0.5,0.1,1,0.3,1.5c0.2,0.5,0.5,1,0.8,1.3c0.4,0.4,0.7,0.7,1.2,0.9c0.4,0.2,0.9,0.3,1.4,0.3
					c0.5,0,1-0.1,1.6-0.3c0.5-0.2,1-0.5,1.3-0.9c0.4-0.4,0.6-0.9,0.8-1.5l0,0l0.5,1.2l1-0.4l-4.5-11.2l-1,0.4l2.2,5.5l0,0
					C188.4,95.7,187.9,95.5,187.3,95.4z M189.3,97.2c0.3,0.3,0.5,0.6,0.6,1c0.2,0.4,0.2,0.8,0.2,1.2c0,0.4-0.1,0.8-0.2,1.1
					s-0.3,0.7-0.6,0.9c-0.3,0.3-0.6,0.5-1,0.6c-0.4,0.2-0.8,0.2-1.2,0.2c-0.4,0-0.7-0.1-1.1-0.3c-0.3-0.2-0.6-0.4-0.9-0.7
					c-0.3-0.3-0.5-0.6-0.6-1c-0.2-0.4-0.2-0.8-0.3-1.2c0-0.4,0-0.8,0.2-1.1c0.1-0.3,0.3-0.7,0.6-0.9c0.3-0.3,0.6-0.5,1-0.7
					c0.4-0.2,0.8-0.2,1.2-0.2c0.4,0,0.7,0.1,1.1,0.3C188.7,96.7,189,96.9,189.3,97.2z"/>
				<path class="st4" d="M199.2,95.3c0-0.1,0-0.2-0.1-0.2c-0.2-0.5-0.4-0.9-0.6-1.3c-0.3-0.4-0.6-0.7-1-0.9s-0.8-0.4-1.3-0.4
					s-1,0-1.6,0.2c-0.5,0.2-1,0.4-1.3,0.7c-0.4,0.3-0.7,0.7-0.9,1.1c-0.2,0.4-0.4,0.9-0.4,1.4s0,1,0.2,1.6c0.2,0.5,0.4,1,0.7,1.4
					c0.3,0.4,0.7,0.7,1.1,1c0.4,0.2,0.9,0.4,1.4,0.4s1,0,1.6-0.2c0.6-0.2,1.1-0.5,1.5-0.9c0.4-0.4,0.8-0.9,1.1-1.6l-1-0.4
					c-0.1,0.4-0.3,0.8-0.6,1.1c-0.3,0.4-0.7,0.6-1.3,0.8c-0.4,0.1-0.7,0.2-1.1,0.1c-0.4,0-0.7-0.1-1-0.3c-0.3-0.2-0.6-0.4-0.8-0.7
					c-0.2-0.3-0.4-0.6-0.5-0.9l5.9-1.8C199.3,95.5,199.3,95.4,199.2,95.3z M193.1,96.6c-0.1-0.3-0.1-0.6,0-0.9
					c0-0.3,0.1-0.6,0.3-0.9c0.2-0.3,0.4-0.5,0.6-0.8c0.3-0.2,0.6-0.4,0.9-0.5c0.7-0.2,1.4-0.2,1.9,0.1c0.5,0.3,0.9,0.8,1.2,1.5
					L193.1,96.6z"/>
				<path class="st4" d="M201,92c0.1-0.1,0.3-0.2,0.4-0.3c0.2-0.1,0.4-0.2,0.5-0.2c0.4-0.1,0.8-0.1,1.1,0s0.7,0.3,0.9,0.6l0.7-0.8
					c-0.3-0.4-0.8-0.6-1.3-0.7c-0.5-0.1-1-0.1-1.6,0c-0.3,0.1-0.6,0.2-0.9,0.4c-0.3,0.2-0.5,0.4-0.7,0.6c-0.2,0.2-0.3,0.5-0.4,0.8
					c-0.1,0.3-0.1,0.6,0,1c0.1,0.3,0.2,0.6,0.4,0.8c0.2,0.2,0.4,0.3,0.7,0.4c0.2,0.1,0.5,0.2,0.8,0.2c0.3,0,0.5,0,0.7,0
					c0.7,0,1.3,0,1.7,0.1c0.4,0.1,0.7,0.3,0.8,0.7c0.1,0.2,0.1,0.4,0,0.6c-0.1,0.2-0.1,0.3-0.3,0.5s-0.3,0.3-0.5,0.4
					c-0.2,0.1-0.4,0.2-0.6,0.2c-0.4,0.1-0.9,0.1-1.3,0c-0.4-0.1-0.8-0.3-1-0.6l-0.7,0.8c0.4,0.4,1,0.7,1.5,0.8
					c0.6,0.1,1.1,0.1,1.7-0.1c0.3-0.1,0.6-0.2,1-0.4c0.3-0.2,0.6-0.4,0.8-0.6c0.2-0.2,0.4-0.5,0.5-0.9c0.1-0.3,0.1-0.7,0-1.1
					c-0.1-0.6-0.5-1-0.9-1.2c-0.5-0.2-1.2-0.3-2.1-0.3c-0.6,0-1.1,0-1.4-0.1c-0.3-0.1-0.5-0.3-0.6-0.7c0-0.2,0-0.4,0-0.5
					C200.8,92.3,200.9,92.2,201,92z"/>
				<path class="st4" d="M210.9,89.2c-0.5-0.2-1.1-0.2-1.6-0.1c-0.6,0.1-1.1,0.3-1.5,0.6c-0.4,0.3-0.8,0.6-1.1,1
					c-0.3,0.4-0.5,0.9-0.6,1.4s-0.1,1,0,1.6c0.1,0.5,0.3,1,0.5,1.5c0.3,0.4,0.6,0.8,1,1.1c0.4,0.3,0.8,0.5,1.3,0.6
					c0.5,0.1,1,0.1,1.6,0c0.5-0.1,1-0.3,1.5-0.6c0.5-0.3,0.8-0.8,1-1.3l0,0l0.2,1.2l1.1-0.2l-2-11.9l-1.1,0.2l1,5.8l0,0
					C211.9,89.6,211.4,89.3,210.9,89.2z M212.5,91.3c0.2,0.3,0.3,0.7,0.4,1.1c0.1,0.4,0.1,0.8,0,1.2c-0.1,0.4-0.2,0.7-0.4,1
					c-0.2,0.3-0.5,0.6-0.8,0.8c-0.3,0.2-0.7,0.3-1.1,0.4c-0.4,0.1-0.8,0.1-1.2,0c-0.4-0.1-0.7-0.3-1-0.5c-0.3-0.2-0.5-0.5-0.7-0.9
					c-0.2-0.3-0.3-0.7-0.4-1.1c-0.1-0.4-0.1-0.8,0-1.2c0.1-0.4,0.2-0.7,0.4-1c0.2-0.3,0.4-0.6,0.8-0.8c0.3-0.2,0.7-0.4,1.1-0.4
					c0.4-0.1,0.8-0.1,1.2,0c0.4,0.1,0.7,0.3,1,0.5C212,90.7,212.3,91,212.5,91.3z"/>
				<path class="st4" d="M222.5,91.4c0-0.1,0-0.2,0-0.2c0-0.5-0.2-1-0.4-1.4c-0.2-0.4-0.5-0.8-0.8-1.1c-0.3-0.3-0.7-0.5-1.2-0.7
					c-0.5-0.2-1-0.2-1.6-0.1c-0.5,0.1-1,0.2-1.5,0.4c-0.4,0.2-0.8,0.6-1.1,0.9c-0.3,0.4-0.5,0.8-0.7,1.3c-0.1,0.5-0.2,1-0.1,1.6
					c0.1,0.6,0.2,1.1,0.4,1.5c0.2,0.5,0.6,0.8,0.9,1.2c0.4,0.3,0.8,0.6,1.3,0.7s1,0.2,1.6,0.1c0.6-0.1,1.2-0.2,1.7-0.5
					c0.5-0.3,1-0.7,1.4-1.4l-0.9-0.6c-0.2,0.4-0.5,0.7-0.8,1c-0.4,0.3-0.9,0.5-1.4,0.5c-0.4,0-0.7,0-1.1-0.1
					c-0.3-0.1-0.6-0.3-0.9-0.5c-0.3-0.2-0.5-0.5-0.7-0.8c-0.2-0.3-0.3-0.7-0.3-1l6.2-0.6C222.5,91.6,222.5,91.5,222.5,91.4z
					 M216.2,91.4c0-0.3,0-0.6,0.1-0.9s0.3-0.6,0.5-0.8c0.2-0.3,0.5-0.5,0.8-0.6c0.3-0.2,0.6-0.3,1-0.3c0.8-0.1,1.4,0.1,1.9,0.5
					s0.7,1,0.8,1.7L216.2,91.4z"/>
				<polygon class="st4" points="231.4,94.9 231.4,83.6 230.4,83.6 227.5,86 228.2,86.8 230.2,85 230.2,94.9 				"/>
				<path class="st4" d="M237.9,95.2l3.4-4.8c0.3-0.4,0.6-0.9,0.8-1.4c0.2-0.5,0.4-1,0.4-1.6c0-0.5,0-1-0.2-1.5
					c-0.2-0.5-0.4-0.8-0.7-1.2c-0.3-0.3-0.7-0.6-1.1-0.8c-0.4-0.2-0.9-0.3-1.5-0.4c-0.5,0-1,0-1.5,0.2c-0.5,0.1-0.9,0.4-1.2,0.6
					c-0.4,0.3-0.6,0.6-0.8,1.1c-0.2,0.4-0.3,0.9-0.4,1.4c0,0.5,0,1,0.2,1.4s0.4,0.8,0.7,1.2c0.3,0.3,0.6,0.6,1,0.8s0.9,0.3,1.3,0.4
					c0.3,0,0.6,0,0.9,0c0.3-0.1,0.6-0.1,0.7-0.3l0,0l-3.5,4.7L237.9,95.2z M239.7,89.6c-0.3,0.1-0.7,0.1-1.1,0.1
					c-0.4,0-0.7-0.1-1-0.3c-0.3-0.2-0.6-0.3-0.8-0.6c-0.2-0.2-0.4-0.5-0.4-0.9c-0.1-0.3-0.1-0.7-0.1-1c0-0.4,0.1-0.7,0.3-1
					c0.1-0.3,0.3-0.6,0.6-0.8s0.5-0.4,0.8-0.5c0.3-0.1,0.7-0.2,1-0.1c0.4,0,0.7,0.1,1,0.3c0.3,0.2,0.6,0.4,0.8,0.6
					c0.2,0.2,0.4,0.5,0.5,0.9c0.1,0.3,0.1,0.7,0.1,1c0,0.4-0.1,0.7-0.2,1s-0.3,0.6-0.6,0.8C240.3,89.3,240.1,89.5,239.7,89.6z"/>
				<polygon class="st4" points="245.1,96 251.1,86.5 251.2,85.4 244.6,84.5 244.4,85.5 249.9,86.3 243.8,95.8 				"/>
				<path class="st4" d="M257.9,90.5c-0.1,0.2-0.3,0.4-0.4,0.6c-0.2,0.2-0.4,0.3-0.6,0.5s-0.4,0.3-0.6,0.4l-5.6,3.6l-0.3,1.2
					l7.1,1.6l0.2-1l-5.9-1.3l4.9-3.1c0.3-0.2,0.6-0.4,0.9-0.6s0.5-0.4,0.7-0.6c0.2-0.2,0.4-0.5,0.6-0.8c0.2-0.3,0.3-0.6,0.4-1
					c0.1-0.5,0.1-1,0-1.4c-0.1-0.4-0.3-0.8-0.5-1.1c-0.2-0.3-0.5-0.6-0.9-0.8s-0.8-0.4-1.2-0.5c-0.4-0.1-0.9-0.1-1.3-0.1
					c-0.4,0.1-0.8,0.2-1.1,0.3s-0.7,0.4-0.9,0.7c-0.3,0.3-0.5,0.6-0.7,1l1.1,0.5c0.2-0.5,0.6-1,1.1-1.2c0.5-0.3,1-0.4,1.6-0.2
					c0.3,0.1,0.6,0.2,0.8,0.3c0.2,0.2,0.4,0.4,0.6,0.6s0.3,0.5,0.3,0.8c0.1,0.3,0,0.6,0,0.9C258.1,90.1,258,90.3,257.9,90.5z"/>
				<path class="st3" d="M300.2,270.2c0.9-1,0.8-2.6-0.2-3.5c-1-0.9-2.6-0.8-3.5,0.2c-33,36.6-89.6,39.6-126.2,6.7
					c-4.6-4.2-8.8-8.8-12.4-13.8c-0.8-1.1-2.4-1.4-3.5-0.5c-1.1,0.8-1.4,2.4-0.5,3.5c3.8,5.3,8.3,10.2,13.1,14.6
					c17.5,15.7,39.7,24.2,63,24.2c1.7,0,3.4,0,5.1-0.1C260.2,300,283.3,288.9,300.2,270.2z"/>
				<path class="st3" d="M279.2,132.6c1.2,0.8,2.7,0.4,3.5-0.7c0.8-1.2,0.4-2.7-0.7-3.5c-8-5.3-16.8-9.3-26-12
					c-24.2-6.9-49.7-4-71.7,8.2c-22,12.2-38,32.3-44.9,56.5c-0.4,1.3,0.4,2.7,1.7,3.1c0.2,0.1,0.5,0.1,0.7,0.1
					c1.1,0,2.1-0.7,2.4-1.8c6.6-22.9,21.7-41.9,42.5-53.5c20.9-11.6,45-14.3,67.9-7.8C263.3,123.8,271.6,127.6,279.2,132.6z"/>
				<path class="st3" d="M372.3,239.6c-1.3-0.3-2.7,0.5-3,1.8c-9.2,37.2-32.3,68.6-65.1,88.5c-32.8,19.8-71.4,25.7-108.6,16.5
					c-37.7-9.3-70.5-34-90-67.7c-0.7-1.2-2.2-1.6-3.4-0.9c-1.2,0.7-1.6,2.2-0.9,3.4c20.1,34.9,54,60.4,93.1,70
					c11.9,2.9,23.9,4.4,35.8,4.4c26.7,0,53.1-7.3,76.5-21.5c33.9-20.5,57.9-53,67.4-91.5C374.5,241.3,373.7,239.9,372.3,239.6z"/>
				<path class="st3" d="M88.3,172.1c0.2,0.1,0.4,0.1,0.6,0.1c1.1,0,2.1-0.7,2.4-1.9c20.3-76.5,99.1-122.1,175.6-101.8
					c27.2,7.2,51.5,22.2,70.3,43.2c0.9,1,2.5,1.1,3.5,0.2c1-0.9,1.1-2.5,0.2-3.5c-19.4-21.8-44.5-37.2-72.7-44.7
					C189.1,42.6,107.6,89.9,86.5,169C86.2,170.4,87,171.7,88.3,172.1z"/>
				<polygon class="st4" points="207.6,139.5 204.3,136.3 203.8,140.9 199.8,143 203.9,144.9 204.7,149.4 207.8,146 212.3,146.7 
					210.1,142.7 212.1,138.6 				"/>
				<polygon class="st4" points="193.2,147 190.7,144.6 190.3,148 187.3,149.6 190.4,151 191,154.4 193.3,151.9 196.7,152.3 
					195,149.4 196.5,146.3 				"/>
				<polygon class="st4" points="181.7,153.8 180.2,152.4 180,154.4 178.2,155.4 180.1,156.2 180.4,158.3 181.8,156.8 183.9,157 
					182.8,155.2 183.7,153.4 				"/>
				<polygon class="st4" points="222.5,136.3 220,133.9 219.6,137.3 216.6,139 219.7,140.4 220.3,143.7 222.7,141.2 226.1,141.7 
					224.4,138.7 225.8,135.6 				"/>
				<polygon class="st4" points="234.5,134.6 233,133.2 232.8,135.2 231,136.2 232.8,137 233.2,139.1 234.6,137.5 236.6,137.8 
					235.6,136 236.5,134.2 				"/>
			</g>
		</g>
	</g>
</g>
</svg>
